<svg width="40" height="40" viewBox="0 0 40 40" fill="none" xmlns="http://www.w3.org/2000/svg">
<g clip-path="url(#clip0_140_231)">
<path d="M0.078125 15.9741C0.239431 14.8331 0.401782 13.7312 0.719456 12.6549C1.59102 9.70216 3.14634 7.17084 5.37943 5.06088C7.94112 2.64044 10.9801 1.14971 14.4567 0.621356C17.885 0.100345 21.1924 0.579193 24.3387 2.071C24.5546 2.17337 24.7712 2.27838 24.8427 2.5261C24.9111 2.7628 24.8853 2.99729 24.6928 3.17577C24.4817 3.37149 24.2362 3.41434 23.9718 3.2879C23.3859 3.00778 22.7919 2.748 22.1465 2.57395C23.2518 3.68288 24.154 4.93597 24.8849 6.35906C25.5761 6.01812 26.159 5.57554 26.7466 5.13469C26.6517 4.90872 26.4587 4.83327 26.3147 4.71021C25.9686 4.41442 25.8906 4.06193 26.1183 3.76043C26.3434 3.46246 26.703 3.44191 27.085 3.72009C28.5173 4.76312 29.7457 6.01041 30.7869 7.4424C32.5383 9.8514 33.5647 12.5474 33.9142 15.4966C34.0767 16.868 34.0787 18.2466 33.8702 19.6182C33.8449 19.7851 33.8821 19.9157 33.9972 20.045C34.5856 20.7063 34.686 21.4445 34.3298 22.2525C34.2205 22.5005 34.1288 22.7563 34.0151 23.0436C34.6939 23.3414 35.1775 23.7904 35.3461 24.5259C35.5171 25.2721 35.2394 25.8719 34.7457 26.4449C35.2893 26.8293 35.8481 27.1588 36.3501 27.5679C36.8965 28.0132 37.4101 28.4914 37.8711 29.0241C38.2238 29.4318 38.2337 29.7829 37.918 30.0464C37.6248 30.2911 37.2687 30.2268 36.9351 29.8517C35.8364 28.6168 34.5332 27.668 33.0118 27.0182C32.8279 26.9396 32.6462 26.899 32.4464 26.8993C29.9731 26.9021 27.4998 26.9018 25.0265 26.8987C24.8269 26.8985 24.642 26.9346 24.4589 27.0132C22.1632 27.998 20.408 29.599 19.1868 31.7599C17.6263 34.5213 19.3963 38.0107 22.5261 38.4276C22.8507 38.4708 23.1723 38.4891 23.4974 38.489C27.0642 38.4889 30.6311 38.5036 34.1977 38.4831C36.179 38.4717 37.6344 37.5643 38.4706 35.7512C38.9904 34.6243 39.0035 33.4634 38.5561 32.3022C38.5002 32.1569 38.4155 32.0183 38.4233 31.8573C38.4382 31.5498 38.6009 31.3356 38.8917 31.2536C39.2105 31.1638 39.4558 31.3009 39.6047 31.5875C39.8344 32.0297 39.9373 32.5149 40.0667 33.0205C40.0781 33.5954 40.0781 34.1439 40.067 34.7558C40.0436 34.8695 40.0291 34.9194 40.0194 34.9701C39.471 37.8654 36.9663 39.7549 34.2256 39.725C30.4901 39.6843 26.7538 39.7133 23.0178 39.7177C22.6376 39.7181 22.2636 39.6822 21.8973 39.5912C19.467 38.9879 18.0329 37.4152 17.4726 35.0084C17.333 34.4085 17.3502 34.4062 16.7495 34.4001C14.7398 34.3798 12.7888 34.0253 10.9261 33.2737C5.81954 31.2132 2.43658 27.5418 0.752648 22.3008C0.397287 21.1948 0.24676 20.0489 0.078125 18.9062C0.078125 17.941 0.078125 16.9759 0.078125 15.9741ZM14.1498 20.5415C14.437 20.6367 14.6867 20.8035 14.9432 20.9571C15.2939 21.1672 15.662 21.3112 16.0788 21.3329C16.2947 21.3441 16.3916 21.2929 16.3896 21.0627C16.3826 20.2428 16.3862 19.4228 16.3867 18.6028C16.3868 18.4624 16.3497 18.3476 16.2072 18.2877C15.9685 18.1875 15.7415 18.0611 15.4686 18.0613C13.0998 18.0634 10.7309 18.0648 8.36208 18.0563C8.06769 18.0552 7.97908 18.1671 7.98865 18.4499C8.02251 19.4508 8.12598 20.4444 8.26745 21.4347C8.32594 21.8441 8.12972 22.161 7.76483 22.2255C7.41297 22.2876 7.12458 22.0821 7.04257 21.6805C6.98558 21.4015 6.96614 21.1149 6.92684 20.8321C6.82116 20.0715 6.76597 19.3071 6.7533 18.5397C6.7476 18.1948 6.61572 18.0452 6.23397 18.0509C4.75051 18.073 3.26646 18.0681 1.7828 18.0546C1.44913 18.0516 1.31903 18.139 1.33925 18.4958C1.38421 19.2894 1.495 20.0714 1.67184 20.8441C2.36309 23.8647 3.80613 26.4663 6.01783 28.6415C6.2183 28.8387 6.36533 28.8891 6.60217 28.6884C7.12882 28.2422 7.70289 27.8568 8.30045 27.5117C8.55723 27.3634 8.59206 27.2106 8.47828 26.9405C8.15505 26.1733 7.89186 25.3831 7.67364 24.579C7.55333 24.1357 7.70881 23.8107 8.08211 23.7033C8.42866 23.6035 8.71508 23.7924 8.85859 24.2239C9.04305 24.7785 9.20761 25.3402 9.40719 25.8892C9.70895 26.7193 9.71906 26.7168 10.5249 26.3844C11.7643 25.8731 13.0495 25.5209 14.4488 25.2817C13.6655 25.0229 13.0061 24.6889 12.3875 24.2774C11.4897 23.6803 11.1754 22.5986 11.6118 21.6385C12.0385 20.6998 13.0441 20.2472 14.1498 20.5415ZM15.235 14.5652C14.1704 13.3681 14.8799 11.417 16.5091 11.2011C17.4393 11.0779 18.2624 11.2464 19.0311 11.7572C19.4815 12.0566 19.9767 12.0094 20.2482 11.6386C20.5438 11.2349 20.4495 10.7693 19.9891 10.4191C19.4957 10.0436 18.9362 9.79992 18.3408 9.64054C17.9571 9.53782 17.773 9.30132 17.7849 8.90578C17.7888 8.77579 17.7936 8.64432 17.7794 8.51556C17.7219 7.99447 17.3036 7.67441 16.7948 7.75516C16.3962 7.81844 16.0886 8.1619 16.1314 8.63104C16.1929 9.30443 15.9097 9.61736 15.2906 9.86398C13.934 10.4044 13.2346 11.5033 13.0813 12.9266C12.9247 14.3802 13.5221 15.4604 14.7942 16.2034C15.8813 16.8383 17.0547 17.2582 18.2197 17.7057C18.6797 17.8825 19.0724 18.1473 19.3513 18.5641C20.2957 19.9756 19.3924 22.1423 17.6542 22.5085C16.3847 22.7759 15.1472 22.6425 14.0275 21.8806C13.5635 21.5649 13.0465 21.6735 12.8002 22.075C12.5419 22.496 12.6785 22.9631 13.1549 23.2732C13.871 23.7392 14.6319 24.0891 15.4909 24.2018C15.9078 24.2565 16.1019 24.4929 16.1179 24.9141C16.1233 25.0571 16.1145 25.2008 16.1228 25.3436C16.1506 25.8186 16.4589 26.138 16.9023 26.1575C17.3706 26.178 17.7229 25.8792 17.7771 25.3984C17.7974 25.2183 17.7967 25.0334 17.783 24.8524C17.7504 24.42 17.9515 24.1744 18.3547 24.0432C19.3455 23.7207 20.1123 23.1012 20.6796 22.2325C22.1938 19.9135 21.2767 17.0835 18.6855 16.118C18.1023 15.9008 17.4922 15.7568 16.8976 15.5691C16.2825 15.375 15.7116 15.1007 15.235 14.5652ZM27.5843 16.778C29.1726 16.7799 30.7609 16.7769 32.3491 16.7883C32.6452 16.7905 32.7518 16.7227 32.7325 16.3924C32.6453 14.9009 32.3364 13.4588 31.8363 12.0555C31.0449 9.83493 29.7719 7.92299 28.1256 6.24486C27.8552 5.96925 27.671 5.96389 27.3844 6.20915C26.8897 6.63235 26.3444 6.99356 25.7787 7.3156C25.5012 7.47355 25.4554 7.64031 25.5968 7.91478C25.7093 8.13329 25.786 8.37118 25.8686 8.60403C26.7346 11.0462 27.2246 13.5592 27.3004 16.152C27.3068 16.3702 27.2542 16.632 27.5843 16.778ZM6.77368 15.5126C6.8025 15.1503 6.81983 14.7866 6.86202 14.4259C7.12554 12.1729 7.61198 9.97339 8.4862 7.87267C8.60558 7.5858 8.51931 7.4501 8.27873 7.31285C7.72487 6.99688 7.18573 6.65071 6.70653 6.23143C6.40518 5.96777 6.20476 5.99341 5.93515 6.26677C4.82236 7.39509 3.87934 8.64629 3.13764 10.0467C2.09009 12.0246 1.46789 14.1237 1.3428 16.3653C1.32639 16.6595 1.4012 16.7883 1.72328 16.7857C3.25784 16.7736 4.79257 16.777 6.3272 16.7836C6.57629 16.7846 6.72278 16.7231 6.72488 16.4422C6.72703 16.157 6.75527 15.872 6.77368 15.5126ZM21.2995 12.3396C20.4277 13.3719 19.3909 13.5143 18.2671 12.7606C18.11 12.6553 17.9578 12.5205 17.6719 12.572C17.6719 12.9898 17.6678 13.4134 17.6728 13.8369C17.6813 14.5564 17.5815 14.4767 18.2979 14.6706C19.5551 15.0108 20.6833 15.5635 21.5189 16.6041C21.6156 16.7246 21.7343 16.7803 21.8899 16.7801C23.178 16.7783 24.4661 16.7773 25.7543 16.7824C25.9868 16.7833 26.0762 16.6922 26.0743 16.4569C26.071 16.0531 26.0316 15.653 26.0023 15.2511C25.8339 12.9418 25.351 10.704 24.5063 8.54657C24.4514 8.40635 24.4225 8.2423 24.2342 8.15282C23.134 8.66279 21.9706 9.0467 20.7544 9.34857C21.7933 10.5413 21.9209 11.2296 21.2995 12.3396ZM8.00066 15.771C7.99849 15.9272 7.99496 16.0833 7.9944 16.2395C7.99246 16.7811 7.99286 16.7819 8.52088 16.7818C9.96577 16.7814 11.4107 16.7821 12.8556 16.7766C12.9887 16.7761 13.1393 16.8315 13.2828 16.6891C12.214 15.7119 11.7255 14.4818 11.8022 13.058C11.8786 11.6399 12.4487 10.4238 13.5126 9.48321C13.4514 9.36261 13.3738 9.34666 13.2985 9.33055C12.2012 9.09566 11.1419 8.74077 10.1214 8.27888C9.82399 8.14428 9.69835 8.18577 9.57634 8.493C9.0853 9.72949 8.73198 11.0036 8.45932 12.3034C8.22416 13.4244 8.12607 14.5628 8.00066 15.771ZM13.6889 26.7059C12.6296 26.9259 11.6122 27.2726 10.6205 27.703C10.3533 27.819 10.306 27.9501 10.4502 28.207C10.8712 28.9571 11.3333 29.6792 11.8871 30.3371C12.9717 31.6257 14.2364 32.6524 15.9281 33.034C16.3766 33.1351 16.3916 33.1234 16.3921 32.6624C16.3937 31.1547 16.3733 29.6465 16.4029 28.1394C16.4127 27.6381 16.3612 27.2447 15.8121 27.0883C15.7536 27.0716 15.6887 27.0255 15.6572 26.9744C15.3058 26.4052 14.787 26.4695 14.2493 26.591C14.0848 26.6282 13.918 26.6549 13.6889 26.7059ZM20.9423 3.2383C20.066 2.51836 19.1014 1.97874 17.9726 1.7651C17.6727 1.70833 17.512 1.75185 17.5163 2.11926C17.5323 3.4843 17.5255 4.84964 17.5212 6.21485C17.5206 6.4166 17.567 6.55899 17.7727 6.64397C18.4068 6.90601 18.7929 7.39161 18.9586 8.04782C19.0195 8.28903 19.1459 8.36311 19.377 8.3239C20.7779 8.08621 22.1384 7.71484 23.4403 7.13575C23.7045 7.01824 23.7604 6.89172 23.616 6.63324C22.9134 5.37563 22.0845 4.21942 20.9423 3.2383ZM16.2479 5.19519C16.2479 4.06761 16.2479 2.94004 16.2479 1.76661C15.4309 1.86485 14.7546 2.13903 14.1178 2.52545C12.4618 3.53045 11.353 5.02031 10.4288 6.67742C10.2759 6.9514 10.4125 7.04366 10.6299 7.1386C11.8986 7.69285 13.2136 8.08477 14.5822 8.30289C14.818 8.34047 14.875 8.24116 14.9259 8.05328C15.0441 7.61703 15.2223 7.16644 15.6277 6.96602C16.2351 6.6658 16.313 6.19785 16.2491 5.62436C16.2362 5.5087 16.2476 5.39034 16.2479 5.19519ZM26.2891 25.6766C28.0313 25.6766 29.7736 25.6766 31.5158 25.6764C32.1139 25.6763 32.7122 25.685 33.31 25.6721C33.7703 25.6622 34.0566 25.4397 34.1162 25.0836C34.2012 24.576 33.8936 24.2434 33.3149 24.2424C31.0136 24.2384 28.7122 24.2406 26.4109 24.2407C25.6438 24.2407 24.8766 24.2409 24.1095 24.241C23.7999 24.2411 23.5489 24.3459 23.4108 24.642C23.1688 25.1611 23.5261 25.6526 24.1827 25.6705C24.8584 25.689 25.5348 25.6759 26.2891 25.6766ZM29.023 22.9654C30.2662 22.9655 30.2663 22.9655 30.7167 21.8054C30.7308 21.7691 30.7442 21.7325 30.7571 21.6958C30.9573 21.1263 30.6953 20.7309 30.0945 20.7287C28.3787 20.7223 26.6628 20.7234 24.9471 20.7286C24.3725 20.7304 24.0933 21.1163 24.2718 21.665C24.3681 21.9606 24.527 22.2363 24.6163 22.5335C24.7149 22.8612 24.8979 22.9762 25.2406 22.9714C26.4752 22.9542 27.7102 22.9651 29.023 22.9654ZM24.0235 18.0601C23.494 18.0601 22.9646 18.0601 22.4106 18.0601C23.1426 21.3077 21.9799 23.6281 19.0331 25.2107C20.1966 25.3529 21.2193 25.6048 22.2423 25.897C22.2457 25.8233 22.2531 25.7966 22.2472 25.7733C21.9101 24.4486 22.1247 23.8747 23.2516 23.1449C23.406 23.0449 23.4345 22.945 23.3691 22.7909C23.3031 22.6354 23.2414 22.4781 23.1764 22.3222C22.9937 21.8842 22.8643 21.4388 22.9867 20.9586C23.2383 19.971 23.9586 19.4604 25.1158 19.4488C26.0849 19.4392 26.0729 19.4391 26.0754 18.4547C26.0762 18.1368 25.9554 18.0487 25.6619 18.057C25.1422 18.0715 24.6217 18.0605 24.0235 18.0601ZM18.5651 26.6552C17.6065 27.1515 17.5709 28.0101 17.6681 28.925C17.6858 29.0922 17.671 29.263 17.671 29.4321C17.671 30.2442 17.671 31.0563 17.671 31.9806C18.6352 29.9665 19.97 28.4027 21.6664 27.1417C21.5804 27.005 21.4769 26.9922 21.3781 26.9643C20.6153 26.7488 19.8459 26.5694 19.0546 26.4916C18.8813 26.4746 18.7164 26.4371 18.5651 26.6552ZM31.9871 18.0575C30.7404 18.0585 29.4936 18.0601 28.2469 18.0604C27.2901 18.0607 27.3045 18.0603 27.2852 19.0137C27.2782 19.3627 27.3967 19.4582 27.7328 19.4543C29.0572 19.4392 30.3821 19.4596 31.7066 19.4462C32.6807 19.4363 32.6781 19.7009 32.7283 18.4286C32.739 18.1603 32.6455 18.038 32.3749 18.0556C32.2714 18.0623 32.1672 18.057 31.9871 18.0575ZM9.64989 31.3216C10.3776 31.707 11.1268 32.0404 11.9273 32.2644C10.7957 31.1528 9.92064 29.8606 9.1618 28.4673C8.4681 28.8474 7.86803 29.2573 7.28968 29.748C8.03414 30.3761 8.80973 30.8458 9.64989 31.3216ZM10.2189 3.23378C9.19355 3.74282 8.2149 4.32446 7.29485 5.08571C7.88441 5.59056 8.50048 5.98446 9.16578 6.37906C9.90261 4.95388 10.7957 3.68229 11.9223 2.57892C11.3339 2.7218 10.8027 2.96472 10.2189 3.23378ZM33.0764 22.022C33.1346 21.8634 33.2112 21.7088 33.2473 21.5454C33.3367 21.1396 33.1454 20.8135 32.7636 20.7474C32.5282 20.7067 32.2801 20.6848 32.007 20.7856C32.2585 21.5595 31.8687 22.2265 31.6391 22.9213C32.6411 23.0626 32.641 23.0626 32.9896 22.221C33.0095 22.1729 33.0302 22.1251 33.0764 22.022ZM18.3797 20.3601C18.6098 19.551 18.3675 19.0264 17.7068 18.9256C17.7068 19.6423 17.7068 20.357 17.7068 21.1019C18.0646 20.9627 18.2106 20.6896 18.3797 20.3601ZM16.3808 12.682C16.3539 12.6619 16.3131 12.6187 16.3024 12.6252C16.069 12.7665 15.968 12.9989 15.9782 13.249C15.988 13.4871 16.0765 13.7186 16.3858 13.8224C16.3858 13.4328 16.3858 13.0832 16.3808 12.682Z" fill="#2B214A"/>
<path d="M32.4613 33.2464C31.5348 33.8773 30.6257 34.4838 29.7302 35.1098C29.3818 35.3534 29.0779 35.3512 28.7324 35.1063C28.0002 34.5875 27.2439 34.1025 26.5169 33.5769C26.2341 33.3725 26.0329 33.3902 25.7614 33.5943C24.7634 34.3445 23.7482 35.0717 22.7398 35.8081C22.4852 35.994 22.2151 36.0381 21.9386 35.8723C21.692 35.7245 21.6636 35.4815 21.6918 35.221C21.7121 35.0332 21.8353 34.921 21.974 34.8198C23.2037 33.9226 24.4353 33.0279 25.6633 32.1284C25.978 31.8979 26.2706 31.901 26.5934 32.1261C27.3722 32.6694 28.1642 33.1938 28.9476 33.7305C29.1076 33.8402 29.2498 33.9157 29.4412 33.7851C30.6326 32.9722 31.8281 32.1653 33.0632 31.3286C32.7642 31.1814 32.4792 31.1701 32.2082 31.1093C31.7608 31.0088 31.5162 30.7127 31.5888 30.3582C31.6661 29.9807 31.9672 29.8007 32.4255 29.8876C33.2035 30.0352 33.9808 30.1879 34.754 30.3586C35.1932 30.4556 35.3612 30.7167 35.278 31.157C35.1287 31.9475 34.9679 32.736 34.7966 33.522C34.7092 33.9228 34.4097 34.1362 34.0768 34.0737C33.733 34.0091 33.5166 33.6647 33.5793 33.2651C33.6209 33.0003 33.7246 32.7447 33.7129 32.4083C33.2764 32.7001 32.8802 32.965 32.4613 33.2464Z" fill="#2B214A"/>
</g>
<defs>
<clipPath id="clip0_140_231">
<rect width="40" height="40" fill="white"/>
</clipPath>
</defs>
</svg>
