<svg width="40" height="40" viewBox="0 0 40 40" fill="none" xmlns="http://www.w3.org/2000/svg">
<g clip-path="url(#clip0_140_122)">
<path d="M16.7694 36.9574C16.1123 36.9586 15.5186 36.9239 14.9171 36.6664C13.9997 36.2736 13.1983 34.9985 13.2006 34.1372C13.2076 31.5072 13.2031 28.8773 13.2031 26.2474C13.2031 26.0821 13.2031 25.9168 13.2031 25.7277C11.9381 25.7277 10.7222 25.7277 9.45312 25.7277C9.45312 25.8992 9.45312 26.0509 9.45312 26.2027C9.4531 28.7675 9.4221 31.3329 9.46699 33.8969C9.48744 35.065 8.59625 36.4121 7.40943 36.7909C5.54287 37.3866 3.71933 36.483 3.22735 34.4901C3.19379 34.3541 3.2041 34.2059 3.20403 34.0634C3.2028 31.4465 3.2031 28.8296 3.20308 26.2126C3.20307 26.0597 3.20308 25.9067 3.20308 25.7613C2.20761 25.6024 1.9529 25.9419 1.95297 26.7088C1.95334 30.7709 1.95311 34.833 1.95309 38.895C1.95309 39.0618 1.95309 39.2285 1.95309 39.4236C1.53159 39.4236 1.14891 39.4236 0.703104 39.4236C0.703104 39.2551 0.703104 39.0916 0.703104 38.9282C0.703099 34.9052 0.70312 30.8822 0.703027 26.8591C0.703021 26.6027 0.68595 26.3451 0.704529 26.09C0.773766 25.1396 1.52408 24.4548 2.48387 24.4532C2.70296 24.4528 2.92205 24.4531 3.17195 24.4531C3.17195 24.0241 3.17195 23.6304 3.17195 23.2383C2.30012 23.1582 1.86305 22.5426 1.9442 21.8335C1.99274 21.4094 1.94924 20.9752 1.95427 20.5456C1.96115 19.9591 2.4562 19.4561 3.04233 19.455C5.22958 19.4508 7.41686 19.4511 9.60412 19.4547C10.192 19.4557 10.6799 19.9344 10.6988 20.5404C10.7159 21.0867 10.7142 21.6343 10.6992 22.1807C10.6839 22.7356 10.2435 23.1119 9.4531 23.2415C9.4531 23.4245 9.4531 23.6163 9.4531 23.8081C9.4531 24.0015 9.4531 24.1949 9.4531 24.4206C10.7015 24.4206 11.9176 24.4206 13.1685 24.4206C13.1685 24.0315 13.1685 23.6381 13.1685 23.2463C12.2562 23.087 11.9532 22.7247 11.9531 21.8048C11.9531 21.4012 11.9513 20.9976 11.9536 20.594C11.9575 19.9373 12.4454 19.4556 13.1111 19.4537C13.9549 19.4514 14.7988 19.4532 15.6726 19.4532C15.6726 18.2002 15.6726 16.9842 15.6726 15.703C15.261 15.703 14.8492 15.7198 14.4392 15.6996C13.539 15.6553 12.6929 15.4213 11.9252 14.9323C10.6782 14.1379 9.9942 12.9576 9.61101 11.5701C9.57689 11.4465 9.54423 11.3202 9.53277 11.1932C9.50034 10.8338 9.36177 10.5856 9.02059 10.3882C8.34271 9.99602 8.02841 9.16985 8.2182 8.36387C8.3937 7.61861 8.89568 7.10449 9.62915 6.97539C11.1672 6.70467 12.2094 7.80877 11.9166 9.36933C11.9054 9.4292 11.8979 9.48978 11.8861 9.56643C13.3356 9.84437 14.6224 10.411 15.6779 11.5731C15.6779 9.98938 15.6779 8.50162 15.6779 6.94362C13.5771 7.09895 11.7342 6.5872 10.4789 4.77398C9.64915 3.57546 9.32429 2.22743 9.48499 0.710033C10.0611 0.710033 10.6532 0.634602 11.2174 0.728067C12.0232 0.861553 12.8423 1.03496 13.5957 1.33978C15.3843 2.06345 16.4585 3.43641 16.8655 5.31657C16.9465 5.69108 16.9363 6.08712 16.9504 6.47387C16.9645 6.86395 16.9562 7.25484 16.9593 7.64536C16.9595 7.66971 16.9734 7.69395 16.9997 7.77873C17.7807 6.91488 18.7281 6.35442 19.8121 6.03742C20.9013 5.71894 22.0155 5.6253 23.1727 5.73336C23.3728 7.64526 22.7487 9.25852 21.42 10.6811C22.2083 10.6975 22.6781 11.1342 23.0396 11.6801C24.6741 10.0459 26.2916 8.42873 27.9169 6.80371C27.7435 6.64764 27.5211 6.48684 27.3474 6.28437C26.662 5.48582 26.7768 3.83376 28.0324 3.35817C29.2234 2.90708 30.1431 3.3694 30.5532 4.31485C30.6195 4.46755 30.6889 4.52741 30.9032 4.48691C31.3742 4.39791 31.8504 4.42953 32.3006 4.65956C32.3979 4.70927 32.5982 4.67445 32.6875 4.60114C32.9681 4.3707 33.2185 4.10338 33.4982 3.83332C33.1064 3.26033 33.0972 2.66604 33.352 2.0645C33.624 1.4223 34.0903 0.958234 34.7672 0.782978C35.5522 0.579749 36.0328 0.693148 36.5732 1.2769C37.2999 2.06189 38.0952 2.78437 38.876 3.51778C39.4108 4.02003 39.587 4.62297 39.4041 5.31286C39.1972 6.09354 38.6728 6.62055 37.9123 6.86351C37.3724 7.036 36.8145 7.05778 36.2879 6.5981C36.0192 6.88683 35.7499 7.15976 35.5043 7.45266C35.4475 7.52044 35.4283 7.67635 35.4656 7.75804C35.9928 8.91278 35.6829 9.806 34.8909 10.6088C34.0969 11.4137 33.2843 12.2002 32.5625 12.9132C32.7993 13.5503 33.0009 14.0987 33.2089 14.6447C33.2396 14.7255 33.29 14.805 33.3497 14.8675C34.0098 15.5597 34.6718 16.2501 35.3368 16.9377C36.6643 18.3102 37.6314 19.9119 38.3575 21.6683C38.8671 22.9007 39.2245 24.1852 39.3467 25.5033C39.4548 26.6705 39.4235 27.8572 39.3687 29.0314C39.2847 30.8292 38.7532 32.5229 37.9698 34.1346C37.5981 34.8993 37.1906 35.6478 36.7691 36.3864C36.6129 36.66 36.5611 36.8831 36.735 37.1617C37.0035 37.5916 36.9901 38.0824 36.9386 38.5571C36.8874 39.0291 36.3703 39.432 35.8557 39.4505C35.5436 39.4617 35.2308 39.4531 34.9184 39.4531C29.346 39.4531 23.7737 39.4532 18.2014 39.4529C17.406 39.4529 16.9544 39.0015 16.9532 38.2075C16.9527 37.895 16.965 37.5818 16.9459 37.2705C16.9394 37.1645 16.8549 37.0632 16.7694 36.9574ZM33.9472 28.2789C34.4106 26.9583 34.4878 25.6023 34.298 24.2271C33.9739 21.8783 32.8241 19.9966 31.0231 18.4879C30.766 18.2726 30.4887 18.1535 30.1401 18.1995C29.5516 18.2771 29.0165 18.0944 28.5122 17.8084C28.3469 17.7147 28.1922 17.6022 28.0413 17.5039C27.9983 17.5328 27.9738 17.5443 27.9557 17.5623C27.153 18.3609 26.339 19.1486 25.5517 19.9623C24.6554 20.8888 23.1933 20.9632 22.4176 20.1987C21.6504 19.4427 20.8286 18.7359 20.1172 17.9311C19.1668 16.8561 19.1883 15.9945 20.0545 14.8174C20.1764 14.6518 20.3075 14.493 20.4637 14.2935C19.4138 13.7239 19.3083 12.785 19.5329 11.8012C18.6636 11.8734 17.8226 11.9433 16.9844 12.0129C16.9844 14.4866 16.9844 16.9521 16.9844 19.4532C17.8591 19.4532 18.703 19.4514 19.5468 19.4537C20.2071 19.4556 20.6903 19.9322 20.7012 20.5998C20.7094 21.1074 20.7059 21.6152 20.7018 22.1228C20.6988 22.4854 20.5494 22.7831 20.234 22.9622C20.0055 23.092 19.7499 23.1742 19.4904 23.2843C19.4904 23.6441 19.4904 24.0374 19.4904 24.4763C20.3271 24.4763 21.1272 24.4763 21.92 24.4763C21.92 24.9068 21.92 25.2896 21.92 25.7181C21.0876 25.7181 20.2875 25.7181 19.4821 25.7181C19.4821 26.1481 19.4821 26.5307 19.4821 26.9531C19.6766 26.9531 19.8432 26.9531 20.0098 26.9531C22.9646 26.9531 25.9195 26.9573 28.8742 26.9502C29.6441 26.9484 30.1509 27.3323 30.5397 27.9564C30.6273 28.0971 30.8032 28.2062 30.9622 28.2744C31.4314 28.4758 31.9331 28.6101 32.3824 28.8463C32.74 29.0343 33.0392 29.3335 33.3866 29.6004C33.4285 29.5269 33.4807 29.4558 33.5125 29.3764C33.6509 29.0303 33.7833 28.6819 33.9472 28.2789ZM33.7889 9.76485C33.8625 9.69131 33.9281 9.60666 34.0112 9.54604C34.5171 9.17708 34.4723 8.5121 34.0261 8.10964C33.3506 7.50043 32.7047 6.85308 32.0954 6.17758C31.6304 5.66199 31.0558 5.6717 30.5669 6.17055C28.4905 8.28939 26.3836 10.3784 24.2848 12.4753C23.6336 13.1259 22.9729 13.767 22.2675 14.4607C23.4519 15.5992 24.5901 16.6933 25.7611 17.8189C26.118 17.4544 26.5234 17.0141 26.9595 16.6068C27.1538 16.4254 27.1307 16.2694 27.0966 16.0355C27.019 15.504 26.8891 14.9382 26.993 14.4298C27.3771 12.55 29.1563 11.5154 31.0663 12.1013C31.2885 12.1695 31.4323 12.138 31.6018 11.9624C32.3066 11.2322 33.0319 10.5218 33.7889 9.76485ZM35.3103 28.3895C34.9796 29.1429 34.6386 29.8921 34.3262 30.6531C34.258 30.8193 34.245 31.0384 34.2865 31.2143C34.5191 32.2023 34.6002 33.1868 34.1732 34.1369C33.9343 34.6684 33.617 35.1647 33.3413 35.6656C34.0253 35.7063 34.7635 35.7504 35.5501 35.7973C40.15 28.9241 38.3083 20.8597 32.9718 16.5202C32.6705 16.8797 32.3693 17.2388 32.0596 17.6083C32.0587 17.606 32.0618 17.6372 32.079 17.6513C33.515 18.8272 34.5 20.3195 35.1239 22.0524C35.8679 24.1189 35.9261 26.2142 35.3103 28.3895ZM14.4531 32.3046C14.4806 33.0873 14.3523 33.8835 14.6837 34.6387C14.9347 35.2108 15.9 35.7922 16.4379 35.6859C17.692 35.438 18.1863 34.703 18.1966 33.5176C18.2179 31.0605 18.2034 28.6031 18.2021 26.1458C18.202 26.0083 18.1882 25.8708 18.1808 25.732C16.9228 25.732 15.708 25.732 14.4531 25.732C14.4531 27.9159 14.4531 30.0712 14.4531 32.3046ZM6.48143 35.666C7.65913 35.4565 8.18163 34.7128 8.19418 33.5855C8.22213 31.0753 8.20329 28.5645 8.20142 26.054C8.20134 25.9434 8.18056 25.8329 8.17096 25.7375C6.91219 25.7375 5.69692 25.7375 4.45311 25.7375C4.45311 25.9263 4.45311 26.0811 4.45311 26.2358C4.45311 28.4862 4.44978 30.7365 4.45649 32.9869C4.45757 33.347 4.50253 33.7071 4.52907 34.0671C4.60158 35.0506 5.5245 35.6709 6.48143 35.666ZM19.7476 30.7037C19.4927 30.6694 19.447 30.809 19.4502 31.0279C19.4594 31.652 19.451 32.2764 19.4536 32.9007C19.4576 33.8514 19.5658 34.8205 18.8618 35.6751C21.5895 35.6751 24.2296 35.6751 26.9275 35.6751C25.5784 34.1872 25.4082 32.532 26.0425 30.7033C23.9505 30.7033 21.8861 30.7033 19.7476 30.7037ZM24.1797 38.2031C27.9858 38.2031 31.792 38.2031 35.6545 38.2031C35.6082 38.0022 35.5971 37.8604 35.5436 37.7369C35.2623 37.0878 34.6844 36.958 34.0698 36.9571C28.9313 36.9501 23.7929 36.953 18.6544 36.954C18.5161 36.954 18.3778 36.9668 18.2305 36.9741C18.2305 37.3951 18.2305 37.7775 18.2305 38.2031C20.2056 38.2031 22.1535 38.2031 24.1797 38.2031ZM27.2202 33.7388C27.272 33.8427 27.3178 33.9502 27.3764 34.0502C28.183 35.4275 29.4479 35.8516 30.7548 35.5834C32.1479 35.2976 33.1665 33.9545 33.1453 32.5134C33.1155 30.4853 30.9237 28.8174 28.8253 29.7694C27.4833 30.3783 26.5947 31.8614 27.2202 33.7388ZM27.3046 28.2031C24.6982 28.2031 22.0917 28.2031 19.4833 28.2031C19.4833 28.6513 19.4833 29.0335 19.4833 29.4531C19.6665 29.4531 19.8199 29.4531 19.9733 29.4531C22.0531 29.4531 24.133 29.4459 26.2127 29.4586C26.6768 29.4615 27.1124 29.4764 27.4251 29.0412C27.5085 28.9251 27.674 28.8608 27.8116 28.7924C28.1623 28.6181 28.5186 28.4549 28.8727 28.2873C28.8722 28.2592 28.8717 28.2311 28.8713 28.2031C28.3751 28.2031 27.8789 28.2031 27.3046 28.2031ZM13.2841 5.3547C14.0272 5.65193 14.8118 5.63386 15.5981 5.70749C15.232 3.24019 12.8183 2.05571 10.8316 2.06864C10.8677 2.24654 10.8927 2.4239 10.9403 2.59491C11.2903 3.85059 11.9785 4.82478 13.2841 5.3547ZM13.8241 14.2875C14.4104 14.3487 14.9968 14.41 15.5959 14.4725C15.2609 12.0449 12.8799 10.8229 10.8603 10.8126C11.0258 12.444 12.0964 13.8332 13.8241 14.2875ZM19.526 10.2771C20.9387 9.69095 21.8276 7.99716 21.7629 7.04381C19.4911 7.1182 17.3299 8.50536 17.0531 10.7065C17.876 10.6182 18.7029 10.6601 19.526 10.2771ZM30.4859 13.2825C30.3606 13.2564 30.2333 13.2006 30.1103 13.2089C29.1176 13.2753 28.1136 14.045 28.2773 15.2179C28.4423 16.4002 29.2909 17.0866 30.4049 16.8686C31.4774 16.6588 32.1085 15.6962 31.8179 14.5786C31.6412 13.8987 31.164 13.5296 30.4859 13.2825ZM8.62967 20.7031C6.82895 20.7031 5.02823 20.7031 3.23713 20.7031C3.23713 21.1591 3.23713 21.5418 3.23713 21.9234C5.31906 21.9234 7.36683 21.9234 9.42576 21.9234C9.42576 21.511 9.42576 21.1286 9.42576 20.7031C9.16867 20.7031 8.93755 20.7031 8.62967 20.7031ZM14.5704 20.7031C14.1218 20.7031 13.6732 20.7031 13.2375 20.7031C13.2375 21.16 13.2375 21.5426 13.2375 21.9232C15.3197 21.9232 17.3674 21.9232 19.4256 21.9232C19.4256 21.5105 19.4256 21.1282 19.4256 20.7031C17.8151 20.7031 16.2318 20.7031 14.5704 20.7031ZM24.2967 18.3985C23.3188 17.4132 22.3408 16.4279 21.3735 15.4533C20.6383 15.8921 20.6005 16.5926 21.1937 17.109C21.8397 17.6713 22.4361 18.2957 23.0138 18.9297C23.6067 19.5804 24.1834 19.5594 24.715 18.7444C24.5975 18.6496 24.4665 18.5438 24.2967 18.3985ZM34.5339 2.71433C34.6006 2.87419 34.6273 3.07379 34.7405 3.18749C35.4887 3.93966 36.2558 4.67311 37.0161 5.41327C37.302 5.69163 37.5158 5.69588 37.8159 5.42613C38.1696 5.10809 38.238 4.85481 37.9672 4.57431C37.1994 3.77905 36.4007 3.01373 35.629 2.22213C35.3698 1.95618 35.1268 1.98158 34.8863 2.19669C34.7465 2.32178 34.6536 2.49941 34.5339 2.71433ZM6.5234 24.4531C7.07575 24.4531 7.62811 24.4531 8.1694 24.4531C8.1694 23.9974 8.1694 23.6149 8.1694 23.2325C6.92098 23.2325 5.70648 23.2325 4.47985 23.2325C4.47985 23.6443 4.47985 24.0265 4.47985 24.4531C5.15221 24.4531 5.79874 24.4531 6.5234 24.4531ZM14.4599 23.3492C14.4599 23.7072 14.4599 24.0651 14.4599 24.4234C15.7349 24.4234 16.9498 24.4234 18.1758 24.4234C18.1758 24.0112 18.1758 23.6288 18.1758 23.2316C18.0888 23.2206 18.0264 23.2058 17.9639 23.2057C16.8847 23.2041 15.8054 23.2026 14.7262 23.2072C14.6428 23.2076 14.5597 23.2534 14.4599 23.3492ZM34.2562 4.99833C34.0165 5.21138 33.7769 5.42443 33.4737 5.69392C33.8645 6.02957 34.1713 6.29304 34.4286 6.51406C34.7041 6.26488 35.0085 5.98966 35.3838 5.65035C35.1021 5.3981 34.8503 5.15719 34.5783 4.94182C34.5232 4.89821 34.3918 4.95106 34.2562 4.99833ZM28.9263 5.62406C29.3223 5.5242 29.4518 5.33059 29.3697 4.91393C29.2982 4.55142 29.0214 4.50893 28.7141 4.53169C28.3903 4.55567 28.268 4.78565 28.2463 5.05321C28.2173 5.41081 28.452 5.60808 28.9263 5.62406ZM9.98121 9.37399C10.3093 9.39874 10.5799 9.33613 10.6235 8.94106C10.6557 8.64939 10.6057 8.38814 10.2839 8.29101C9.96489 8.19475 9.61296 8.35455 9.53936 8.60525C9.43508 8.96046 9.55585 9.20617 9.98121 9.37399ZM20.9895 13.0539C21.0868 13.0773 21.1833 13.1174 21.2813 13.1213C21.7159 13.1385 21.8789 12.981 21.8751 12.5633C21.8716 12.1711 21.7042 11.9975 21.2919 12.0423C21.1238 12.0606 20.8521 12.1852 20.8334 12.2961C20.7954 12.5219 20.8972 12.7713 20.9895 13.0539Z" fill="#2B214A"/>
<path d="M5.57664 5.32877C5.22497 6.19136 4.62642 6.7126 3.74357 6.92134C2.64504 7.18107 1.36738 6.58601 0.92435 5.58116C0.264834 4.08531 0.98164 2.33719 2.65909 1.99036C4.34507 1.64175 5.71417 2.91302 5.69823 4.34663C5.69468 4.66531 5.62967 4.98331 5.57664 5.32877ZM3.84058 3.44283C3.79455 3.4195 3.74926 3.39455 3.70237 3.37308C3.1975 3.14194 2.58024 3.29792 2.23828 3.74253C1.93059 4.14256 1.95527 4.82817 2.29147 5.2205C2.67557 5.66873 3.22394 5.76724 3.74955 5.51162C4.47042 5.16104 4.666 4.04384 3.84058 3.44283Z" fill="#2B214A"/>
<path d="M2.07975 12.3273C2.43933 11.3852 3.10836 10.8463 4.06083 10.713C5.41274 10.5238 6.54588 11.2476 6.89244 12.5636C7.32876 14.2205 6.09709 15.6332 4.59391 15.7204C3.36867 15.7914 2.20033 14.928 2.02086 13.843C1.94135 13.3623 2.04362 12.8516 2.07975 12.3273ZM3.55098 12.4255C3.10968 12.8798 3.20372 13.7479 3.71718 14.1486C4.20225 14.5272 4.90588 14.4711 5.339 13.9969C5.76135 13.5345 5.73817 12.8056 5.28688 12.3578C4.8174 11.8919 4.12246 11.9028 3.55098 12.4255Z" fill="#2B214A"/>
<path d="M6.95912 15.8844C7.38551 14.4541 8.70692 14.1812 9.71215 14.6254C10.4436 14.9486 10.8865 15.9404 10.6881 16.797C10.5278 17.4889 9.81212 18.2331 8.92378 18.2124C7.5284 18.1799 6.88275 17.4559 6.95912 15.8844ZM8.98914 15.7836C8.72109 15.76 8.41814 15.7544 8.32582 16.0463C8.2644 16.2405 8.28819 16.5485 8.40921 16.6888C8.52742 16.8259 8.82469 16.8726 9.02947 16.8472C9.15552 16.8316 9.31434 16.622 9.35451 16.4717C9.42882 16.1936 9.34808 15.9312 8.98914 15.7836Z" fill="#2B214A"/>
<path d="M19.9741 4.12563C18.7558 4.87364 17.2918 4.35902 16.9896 3.09178C16.7154 1.94209 17.2684 1.03662 18.3154 0.73218C19.336 0.43539 20.4406 1.0557 20.673 2.08583C20.8482 2.86166 20.6581 3.57948 19.9741 4.12563ZM19.3741 2.54623C19.2706 2.07973 19.1218 1.96442 18.6797 2.03522C18.3384 2.08987 18.265 2.33106 18.2785 2.63687C18.2914 2.92881 18.426 3.09595 18.7186 3.12303C19.1556 3.16348 19.2674 3.07393 19.3741 2.54623Z" fill="#2B214A"/>
<path d="M30.431 30.7046C31.2635 30.8611 31.7592 31.3851 31.9282 32.1292C32.1002 32.8865 31.9002 33.6035 31.2414 34.105C30.6424 34.561 29.9561 34.5837 29.2956 34.3174C28.6619 34.062 28.2896 33.5558 28.1976 32.8451C28.0573 31.7603 28.7398 30.9433 29.5123 30.7642C29.7964 30.6984 30.1011 30.7214 30.431 30.7046ZM29.5334 32.4167C29.5327 32.4947 29.5296 32.5727 29.5317 32.6506C29.5395 32.9431 29.6875 33.0932 29.9817 33.1271C30.3173 33.1659 30.5486 33.0519 30.614 32.7126C30.6665 32.4399 30.6069 32.1505 30.3257 32.0604C30.0267 31.9644 29.6988 31.9799 29.5334 32.4167Z" fill="#2B214A"/>
<path d="M29.8198 14.4699C30.5585 14.44 30.7604 14.6211 30.7026 15.2152C30.6767 15.4821 30.5373 15.6624 30.2784 15.6908C30.0024 15.7211 29.6984 15.7672 29.5246 15.4457C29.3384 15.1015 29.4472 14.6969 29.8198 14.4699Z" fill="#2B214A"/>
</g>
<defs>
<clipPath id="clip0_140_122">
<rect width="40" height="40" fill="white"/>
</clipPath>
</defs>
</svg>
