<svg width="40" height="40" viewBox="0 0 40 40" fill="none" xmlns="http://www.w3.org/2000/svg">
<g clip-path="url(#clip0_140_172)">
<path d="M10.8228 0.078125C10.9111 0.142824 10.9494 0.234618 11.0167 0.268141C11.9611 0.738582 12.2147 1.68336 12.0894 2.39073C11.9484 3.18655 11.5268 3.85661 10.3743 4.06359C10.1929 4.09617 10.0742 4.15624 10.0746 4.38204C10.0812 7.76603 10.0804 11.15 10.0827 14.534C10.0827 14.5702 10.1007 14.6065 10.1222 14.6875C10.2559 14.6875 10.3948 14.6875 10.5337 14.6875C12.3168 14.6876 14.1001 14.6734 15.883 14.6946C16.5935 14.703 17.2699 14.8842 17.7123 15.5085C18.1866 16.1776 18.2603 16.9072 17.8881 17.644C17.5354 18.3423 16.9338 18.6965 16.1118 18.7794C16.1062 18.9006 16.0946 19.0365 16.0945 19.1725C16.0933 20.8255 16.0818 22.4786 16.1055 24.1312C16.1094 24.4053 16.2684 24.6772 16.4003 24.9321C16.9634 23.1091 17.814 21.5059 19.0665 20.0975C20.3964 18.6021 22.0044 17.5446 23.8392 16.7943C23.9325 16.7562 24.0515 16.627 24.0522 16.5394C24.0648 14.8489 24.0616 13.1584 24.0616 11.5526C23.6067 11.3576 23.1607 11.2473 22.8107 11.0007C21.9133 10.3682 21.7583 8.94074 22.5101 8.06447C22.9762 7.52127 23.593 7.36219 24.2332 7.35528C26.7969 7.32763 29.362 7.30346 31.9248 7.35936C33.4075 7.39169 34.0236 8.09015 34.1109 9.42695C34.1695 10.3232 33.4966 11.3765 32.1318 11.4312C32.1245 11.541 32.1105 11.6542 32.1104 11.7675C32.1089 13.3033 32.1146 14.8391 32.1042 16.3749C32.1025 16.63 32.1649 16.7541 32.4254 16.8528C34.3461 17.5802 35.9644 18.7631 37.2881 20.3136C38.5979 21.8479 39.456 23.6279 39.8472 25.6202C39.8854 25.8144 39.9592 26.0015 40.0473 26.1819C40.0781 27.4235 40.0781 28.6751 40.047 29.9554C39.9457 30.2499 39.8721 30.5149 39.8061 30.7817C39.3777 32.5158 38.657 34.0982 37.53 35.5064C36.4853 36.8118 35.2564 37.8743 33.798 38.6782C32.6556 39.308 31.4301 39.6988 30.1493 39.9288C30.0924 39.939 30.0495 40.0266 30 40.0781C28.7223 40.0781 27.4447 40.0781 26.1407 40.0475C25.9743 39.9707 25.8352 39.9214 25.6939 39.8789C24.7552 39.5963 23.8161 39.3153 22.9675 39.0608C22.4949 39.3372 22.0498 39.5941 21.6089 39.8581C21.5077 39.9188 21.4213 40.0041 21.3281 40.0781C15.1807 40.0781 9.03319 40.0781 2.86376 40.0506C2.58474 39.8893 2.32562 39.7594 2.07097 39.6212C0.697778 38.8762 0.0980442 37.1537 0.578345 35.7636C0.786888 35.1601 1.17606 34.6111 1.5304 34.0682C1.81477 33.6324 2.04618 33.2318 2.045 32.6648C2.02563 23.3556 2.03125 14.0464 2.03124 4.73713C2.03124 4.63297 2.0215 4.52773 2.03305 4.42488C2.05841 4.19895 1.95265 4.08524 1.73817 4.06526C1.12055 4.00773 0.706869 3.64996 0.370962 3.16283C0.297101 3.05572 0.176956 2.98052 0.078125 2.89062C0.078125 2.36815 0.078125 1.84568 0.101679 1.30696C0.473806 0.861759 0.749219 0.353911 1.32945 0.172853C1.33803 0.170177 1.32896 0.110956 1.32812 0.078125C4.4808 0.078125 7.63347 0.078125 10.8228 0.078125ZM18.8982 22.767C18.3354 23.7358 17.9048 24.7582 17.6986 25.8626C17.6376 26.1895 17.4209 26.5432 17.7111 26.8518C18.188 26.6939 18.6271 26.5088 19.0847 26.4053C19.9934 26.1996 20.9059 25.9487 21.8286 25.8833C22.8973 25.8075 23.9797 25.8905 25.0542 25.9429C26.0985 25.9939 27.1003 26.2832 28.0688 26.6542C29.5206 27.2103 31.0044 27.58 32.5653 27.5743C33.1857 27.572 33.8061 27.5304 34.4261 27.4997C35.8789 27.4279 37.2089 26.8973 38.6151 26.3791C38.4075 25.7033 38.2211 25.0302 37.9943 24.3709C37.4458 22.7759 36.5067 21.4437 35.2714 20.2977C34.1039 19.2146 32.7873 18.4152 31.2589 17.9589C30.8929 17.8496 30.6971 17.5887 30.6992 17.1755C30.7085 15.4052 30.7031 13.6349 30.7031 11.8645C30.7031 11.7253 30.7031 11.5861 30.7031 11.4364C28.9369 11.4364 27.2157 11.4364 25.4688 11.4364C25.4688 11.6081 25.4688 11.7498 25.4688 11.8914C25.4688 13.6227 25.4695 15.354 25.4681 17.0852C25.4678 17.5163 25.2529 17.8643 24.915 17.9656C23.1988 18.48 21.7146 19.3944 20.4814 20.6758C19.8911 21.2892 19.4317 22.0284 18.8982 22.767ZM18.8321 28.4802C19.2596 29.1174 19.6831 29.7572 20.1154 30.3911C21.0169 31.7131 21.9044 33.0453 22.8332 34.3479C23.5576 35.3637 23.9822 36.4253 23.585 37.7367C27.6215 39.3756 31.3999 39.0014 34.812 36.2845C37.5492 34.105 38.931 30.5526 38.6088 27.9009C38.4625 27.9525 38.3214 28.0121 38.175 28.0523C37.1308 28.3389 36.1003 28.7227 35.0366 28.8771C33.9666 29.0323 32.8635 28.9695 31.7747 28.9777C31.4173 28.9804 31.057 28.9207 30.7019 28.8648C29.5486 28.6833 28.4507 28.3214 27.3621 27.8988C25.8307 27.3042 24.223 27.2081 22.5887 27.2518C21.1852 27.2892 19.8514 27.5651 18.5379 28.0803C18.6302 28.2106 18.7114 28.3253 18.8321 28.4802ZM20.4706 33.4019C20.1128 32.9557 19.8629 32.4657 19.2047 32.2678C17.7491 31.8301 16.3111 31.3757 14.768 31.5685C14.1099 31.6507 13.4343 31.7228 12.812 31.9335C11.5775 32.3513 10.3332 32.6972 9.02843 32.7261C7.68417 32.756 6.36064 32.6019 5.10946 32.0498C4.91567 31.9643 4.7136 31.886 4.53875 32.1482C3.73 33.361 2.89047 34.5534 2.09099 35.7722C1.58156 36.5488 1.8626 37.7737 2.61815 38.3053C3.09808 38.6429 3.62906 38.745 4.18367 38.7458C9.11851 38.753 14.0534 38.7523 18.9882 38.7466C19.5173 38.746 20.0469 38.7055 20.5754 38.6713C21.9835 38.5802 22.8286 36.8989 22.0134 35.7162C21.498 34.9685 21.0102 34.2017 20.4706 33.4019ZM9.45313 19.4961C9.45313 21.1757 9.45775 22.8553 9.44731 24.5348C9.446 24.7458 9.42185 24.9934 9.31201 25.1608C8.70145 26.0918 8.0588 27.0017 7.43171 27.9219C6.80707 28.8385 6.18783 29.7588 5.54133 30.7142C5.7056 30.7568 5.82952 30.7752 5.94279 30.8204C6.79922 31.1618 7.69835 31.3044 8.60919 31.32C9.80126 31.3404 10.9487 31.1097 12.0659 30.6612C12.8615 30.3418 13.7036 30.1329 14.5792 30.1567C15.425 30.1798 16.2728 30.1806 17.1155 30.2456C17.5691 30.2806 18.0139 30.4298 18.4837 30.532C18.4575 30.477 18.4493 30.4519 18.4351 30.431C17.2678 28.7152 16.093 27.0046 14.9414 25.2785C14.7946 25.0584 14.7015 24.7582 14.6984 24.4937C14.6774 22.7232 14.6875 20.9524 14.6875 19.1817C14.6875 19.045 14.6875 18.9084 14.6875 18.7762C12.9113 18.7762 11.199 18.7762 9.45313 18.7762C9.45313 19.0078 9.45313 19.2135 9.45313 19.4961ZM3.43743 22.1484C3.43743 25.1466 3.43743 28.1448 3.43743 31.2621C4.0089 30.4229 4.50872 29.6852 5.01231 28.9501C5.8381 27.7447 6.67759 26.5485 7.4872 25.3323C7.75656 24.9277 8.07984 24.5634 8.06306 23.9869C8.01648 22.387 8.0469 20.7849 8.0469 19.1837C8.0469 19.0456 8.0469 18.9076 8.0469 18.7743C6.86224 18.6853 6.05487 17.8818 6.04155 16.7292C6.03662 16.3024 6.23694 15.8109 6.49284 15.4566C7.00726 14.7446 7.8405 14.6896 8.65498 14.6712C8.65498 14.5129 8.65498 14.3871 8.65498 14.2636C8.4202 14.1922 8.19827 14.1334 7.98239 14.0574C7.45466 13.8715 6.94161 13.9009 6.39964 14.0443C5.87156 14.184 5.31659 14.2664 4.77094 14.2811C4.33794 14.2927 3.90118 14.164 3.43742 14.0933C3.43742 16.7616 3.43742 19.416 3.43743 22.1484ZM3.43744 8.94531C3.43744 10.1418 3.43744 11.3383 3.43744 12.5048C4.36822 12.9769 5.28112 13.0131 6.22331 12.6441C6.47908 12.5439 6.77779 12.494 7.05126 12.5109C7.58919 12.544 8.12325 12.6401 8.65299 12.7093C8.65299 12.5339 8.65299 12.3429 8.65299 12.1022C8.00518 12.1022 7.37558 12.1022 6.74174 12.1022C6.74174 11.6157 6.74174 11.1794 6.74174 10.6923C7.39225 10.6923 8.0214 10.6923 8.64706 10.6923C8.64706 9.81396 8.64706 8.987 8.64706 8.10932C7.9937 8.10932 7.36457 8.10932 6.74666 8.10932C6.74666 7.62117 6.74666 7.18472 6.74666 6.71186C7.39294 6.71186 8.01216 6.71186 8.64198 6.71186C8.64198 5.83808 8.64198 5.00198 8.64198 4.16507C6.89913 4.16507 5.18683 4.16507 3.43744 4.16507C3.43744 5.74858 3.43744 7.30788 3.43744 8.94531ZM29.6484 10.0781C30.3254 10.0781 31.0023 10.0785 31.6793 10.078C32.3436 10.0775 32.7124 9.8335 32.7039 9.40133C32.6957 8.98832 32.3252 8.75026 31.6866 8.75016C29.2913 8.74978 26.8959 8.74827 24.5006 8.75332C24.3107 8.75373 24.12 8.79609 23.9313 8.82798C23.5948 8.88483 23.4426 9.12542 23.4479 9.42973C23.4528 9.7166 23.6075 9.94559 23.924 9.99932C24.1254 10.0335 24.3293 10.074 24.5323 10.0747C26.2116 10.0807 27.891 10.0781 29.6484 10.0781ZM9.55849 1.40625C8.72626 1.40625 7.89403 1.40624 7.0618 1.40625C5.48836 1.40626 3.91492 1.40388 2.34149 1.40756C1.75817 1.40893 1.48807 1.62211 1.48466 2.06191C1.48112 2.51954 1.75342 2.73298 2.36352 2.7335C4.84721 2.73564 7.3309 2.73574 9.81458 2.73107C9.96507 2.73079 10.122 2.7015 10.2646 2.6527C10.5494 2.55521 10.7194 2.3376 10.694 2.03907C10.6699 1.75551 10.5253 1.52665 10.2017 1.4828C10.0121 1.45712 9.82251 1.43176 9.55849 1.40625ZM11.8359 16.0937C10.6259 16.0938 9.41588 16.0891 8.20591 16.0966C7.79613 16.0991 7.41416 16.4105 7.42783 16.6997C7.44844 17.1359 7.69957 17.3435 8.21137 17.3436C10.7875 17.344 13.3637 17.3438 15.9399 17.3437C16.0179 17.3437 16.1136 17.3717 16.1707 17.3368C16.3353 17.2366 16.5206 17.1376 16.6308 16.9886C16.7837 16.7817 16.7567 16.514 16.5447 16.3684C16.346 16.232 16.0895 16.11 15.8561 16.1056C14.5425 16.081 13.2282 16.0937 11.8359 16.0937Z" fill="#2B214A"/>
<path d="M32.0728 0.078125C32.0945 1.21583 31.2008 2.10691 30.0701 2.109C29.2242 2.11057 28.3782 2.10788 27.5322 2.1099C27.0143 2.11113 26.801 2.32251 26.7972 2.83276C26.7942 3.22314 26.794 3.61354 26.7913 4.00392C26.7911 4.02877 26.7798 4.05355 26.766 4.10942C26.3286 4.10942 25.8831 4.10942 25.3246 4.10942C25.3972 3.38396 25.3991 2.65952 25.5566 1.97071C25.751 1.12114 26.5905 0.737095 27.3386 0.710458C28.2095 0.679449 29.0826 0.715225 29.9542 0.697239C30.3147 0.689801 30.6486 0.584492 30.7029 0.107819C31.1475 0.078125 31.5919 0.078125 32.0728 0.078125Z" fill="#2B214A"/>
<path d="M15.8876 9.8291C16.498 11.1621 15.7031 12.5852 14.3481 12.7444C13.2977 12.8679 12.2397 12.2581 12.0466 11.0155C11.897 10.053 12.4533 9.07812 13.5563 8.77258C14.4688 8.51982 15.4999 8.99529 15.8876 9.8291ZM14.6872 10.8047C14.7266 10.4661 14.5409 10.2462 14.2509 10.1704C13.9544 10.0929 13.6673 10.1477 13.5053 10.4883C13.3612 10.7911 13.4645 11.0146 13.6762 11.2126C13.9962 11.512 14.4601 11.3498 14.6872 10.8047Z" fill="#2B214A"/>
<path d="M30.7813 4.87091C30.7812 5.28277 30.7812 5.65859 30.7812 6.06394C30.3096 6.06394 29.8642 6.06394 29.3749 6.06394C29.4353 5.19351 29.1739 4.30714 29.7844 3.52105C30.1682 3.02679 30.653 2.76194 31.2525 2.74191C32.1236 2.71282 32.9964 2.73888 33.8684 2.73252C34.3456 2.72904 34.6184 2.50533 34.7214 2.04749C35.1568 2.04749 35.5959 2.04749 36.0324 2.04749C36.1958 2.71034 35.6859 3.63287 34.9651 3.89322C34.5868 4.02985 34.173 4.11045 33.771 4.13003C33.0179 4.16672 32.2617 4.13888 31.5068 4.14124C31.0054 4.1428 30.8146 4.32802 30.7813 4.87091Z" fill="#2B214A"/>
<path d="M32.9926 24.7028C32.3254 25.4406 31.5395 25.643 30.6403 25.3039C29.9018 25.0254 29.4883 24.4424 29.3865 23.6813C29.2867 22.9357 29.531 22.2904 30.1358 21.8009C30.8903 21.1902 32.2311 21.2766 32.8723 21.9698C33.5118 22.6611 33.6849 23.7882 32.9926 24.7028ZM30.848 23.6296C30.9527 23.9438 31.2031 24.1009 31.4968 24.0395C31.7838 23.9794 32.0371 23.7964 32.0316 23.4302C32.0258 23.0486 31.735 22.7834 31.3486 22.8133C30.9563 22.8437 30.7625 23.1197 30.848 23.6296Z" fill="#2B214A"/>
<path d="M24.1564 21.836C23.9862 21.3741 24.025 20.9453 24.316 20.8365C24.5617 20.7447 24.9086 20.7316 25.1403 20.8376C25.5268 21.0144 25.5747 21.5091 25.3133 21.8324C25.0051 22.2136 24.5955 22.2251 24.1564 21.836Z" fill="#2B214A"/>
<path d="M32.9739 33.4034C33.4421 33.7045 33.5721 34.0822 33.3554 34.4602C33.1723 34.7796 32.7166 34.9081 32.3775 34.6442C32.1931 34.5007 32.0571 34.1829 32.0566 33.9434C32.0559 33.6313 32.3184 33.425 32.6412 33.3654C32.7395 33.3472 32.8465 33.3767 32.9739 33.4034Z" fill="#2B214A"/>
<path d="M26.2152 30.7183C26.7517 30.8853 26.884 31.3287 26.711 31.7232C26.5329 32.1292 26.1162 32.2082 25.6572 31.9665C25.3596 31.8097 25.3552 31.5481 25.4046 31.3038C25.4398 31.1295 25.5708 30.9442 25.7127 30.8314C25.8298 30.7383 26.0256 30.7442 26.2152 30.7183Z" fill="#2B214A"/>
<path d="M11.699 23.4317C11.8553 23.6499 12.0565 23.8465 12.0931 24.0701C12.1628 24.496 11.8955 24.7566 11.4827 24.7653C11.0411 24.7746 10.7262 24.5079 10.7039 24.1056C10.6829 23.7276 11.0004 23.3698 11.3752 23.3632C11.4729 23.3615 11.5714 23.4015 11.699 23.4317Z" fill="#2B214A"/>
<path d="M13.4309 28.7499C12.9468 28.7353 12.7342 28.5103 12.7345 28.0473C12.7347 27.6708 13.0683 27.3414 13.4455 27.3451C13.7225 27.3478 14.1193 27.7294 14.1393 28.0123C14.165 28.3761 13.8555 28.7139 13.4309 28.7499Z" fill="#2B214A"/>
<path d="M7.42157 23.5647C7.26362 23.9669 6.89068 24.2082 6.60202 24.1274C6.26074 24.0319 5.96603 23.6193 6.03074 23.3277C6.12952 22.8826 6.39091 22.6934 6.84935 22.7353C7.24846 22.7717 7.41735 23.0069 7.42157 23.5647Z" fill="#2B214A"/>
<path d="M4.76144 18.7502C5.2209 18.7874 5.49821 19.0793 5.46755 19.4583C5.43412 19.8717 5.13026 20.0944 4.62219 20.0779C4.27896 20.0668 4.06027 19.8207 4.06273 19.4485C4.0658 18.9845 4.27748 18.7624 4.76144 18.7502Z" fill="#2B214A"/>
</g>
<defs>
<clipPath id="clip0_140_172">
<rect width="40" height="40" fill="white"/>
</clipPath>
</defs>
</svg>
