<svg width="40" height="40" viewBox="0 0 40 40" fill="none" xmlns="http://www.w3.org/2000/svg">
<g clip-path="url(#clip0_139_53)">
<path d="M1.99478 0.078125C2.29232 0.338431 2.55236 0.599771 2.81463 0.858856C3.71618 1.74945 4.61945 2.63831 5.52014 3.52976C5.98005 3.98495 6.43624 4.4439 6.89345 4.90182C7.53202 5.54139 8.16946 6.18208 8.80834 6.82134C9.26243 7.27571 9.72345 7.72328 10.1716 8.18339C10.6788 8.70411 11.1717 9.23877 11.6773 9.76099C12.0109 10.1054 12.3568 10.4378 12.6958 10.777C13.2427 11.3242 13.7835 11.8776 14.3364 12.4187C14.7037 12.7782 15.0971 13.1111 15.4617 13.4731C15.9419 13.9499 16.4001 14.4488 16.8776 14.9285C17.2781 15.3309 17.6958 15.7162 18.1001 16.115C18.5744 16.5828 19.0419 17.0574 19.5134 17.528C19.9317 17.9456 20.3519 18.3614 20.7705 18.7786C21.2037 19.2104 21.6363 19.6429 22.0688 20.0754C22.652 20.6586 23.24 21.2373 23.8164 21.8272C24.2791 22.3007 24.7164 22.7994 25.1855 23.2663C25.7951 23.8731 26.434 24.4506 27.0434 25.0576C27.5422 25.5544 28.0112 26.0809 28.503 26.585C28.8584 26.9493 29.2329 27.295 29.5927 27.6551C30.1556 28.2186 30.7077 28.7929 31.2747 29.3521C31.6901 29.7618 32.13 30.1467 32.545 30.5568C33.4457 31.4465 34.3375 32.3452 35.2328 33.2404C36.1403 34.1479 37.0559 35.0476 37.9524 35.9659C38.6579 36.6886 39.3397 37.4344 40.0551 38.1475C40.0781 38.5174 40.0781 38.9097 40.0554 39.3161C39.8894 39.4912 39.7457 39.6519 39.6031 39.8136C39.5261 39.9009 39.451 39.9899 39.375 40.0781C26.5348 40.0781 13.6947 40.0781 0.840275 40.0554C0.665 39.8894 0.504342 39.7457 0.342693 39.6031C0.25538 39.5261 0.166369 39.451 0.078125 39.375C0.0781245 26.5348 0.0781245 13.6947 0.101741 0.840439C0.297073 0.637822 0.469846 0.450192 0.639858 0.260091C0.690942 0.202971 0.734334 0.138972 0.78125 0.078125C1.1736 0.078125 1.56595 0.078125 1.99478 0.078125ZM32.499 33.3219C32.6359 33.202 32.7729 33.0822 32.921 32.9525C32.3032 32.3891 31.7246 31.8615 31.1184 31.3087C31.0941 31.3369 31.0059 31.4468 30.9097 31.5493C30.8029 31.6631 30.6905 31.7718 30.5777 31.8797C30.2727 32.1714 29.805 32.1894 29.5509 31.9211C29.2903 31.6459 29.3159 31.1989 29.6168 30.894C29.8213 30.6867 30.0343 30.4878 30.2357 30.2927C29.6532 29.7076 29.1028 29.1547 28.5435 28.5929C28.3155 28.8248 28.0956 29.0654 27.8571 29.286C27.6409 29.4861 27.3914 29.512 27.1188 29.3796C26.8581 29.253 26.7124 29.0764 26.715 28.7694C26.7199 28.1733 27.2378 27.9693 27.5719 27.5133C27.0259 27.0455 26.4286 26.534 25.8108 26.0048C25.6876 26.1331 25.5011 26.3487 25.2924 26.5401C24.9396 26.8634 24.6125 26.8806 24.3106 26.615C23.9772 26.3218 23.9549 25.8681 24.2679 25.5392C24.4628 25.3344 24.6718 25.1432 24.8659 24.9544C24.2936 24.3856 23.7542 23.8495 23.2155 23.3142C23.0643 23.464 22.9123 23.6475 22.7281 23.7893C22.4838 23.9773 22.2513 24.2443 21.8853 24.1122C21.3676 23.9253 21.2267 23.2611 21.6236 22.8734C21.8251 22.6766 22.0447 22.4984 22.1889 22.3711C21.5749 21.7576 21.0276 21.2107 20.4578 20.6414C20.2857 20.8224 20.086 21.0458 19.8721 21.2545C19.5443 21.5744 19.2634 21.55 18.9176 21.2273C18.6 20.9308 18.6483 20.4988 18.9112 20.269C19.143 20.0664 19.3714 19.8601 19.4926 19.7523C18.9032 19.1154 18.3776 18.5474 17.8434 17.97C17.6412 18.1758 17.4556 18.3765 17.2572 18.5635C17.0191 18.7879 16.5513 18.8267 16.3433 18.6518C15.9538 18.3241 15.9075 18.0716 16.2033 17.6688C16.4002 17.4007 16.6328 17.1589 16.8167 16.9436C16.293 16.4116 15.7579 15.8679 15.1612 15.2616C15.0656 15.3842 14.9732 15.527 14.8563 15.6458C14.7414 15.7625 14.6077 15.8635 14.4716 15.9559C14.1464 16.1766 13.7203 16.1373 13.5182 15.8774C13.2802 15.5713 13.3077 15.1757 13.5988 14.8818C13.8045 14.6741 14.0218 14.4778 14.2339 14.2764C14.1815 14.3048 14.1292 14.3333 14.0768 14.3618C13.566 13.794 13.0552 13.2263 12.5595 12.6754C12.2891 12.9048 12.0554 13.1266 11.7977 13.3157C11.4949 13.538 11.0842 13.4735 10.859 13.1971C10.6271 12.9123 10.6366 12.5435 10.8967 12.2679C11.1109 12.0409 11.3379 11.826 11.538 11.627C10.9768 11.065 10.4191 10.5065 9.85126 9.93789C9.66168 10.132 9.4649 10.3402 9.26083 10.5409C8.96109 10.8357 8.5801 10.8643 8.26568 10.6227C8.02608 10.4387 7.93916 10.0353 8.14975 9.7295C8.35295 9.43446 8.63606 9.19445 8.76787 9.05403C8.26361 8.46047 7.75695 7.86411 7.22296 7.23556C6.98991 7.4813 6.78236 7.7143 6.55925 7.93129C6.35074 8.13408 6.11471 8.19408 5.82865 8.06163C5.33416 7.83269 5.20488 7.28703 5.57712 6.88445C5.77687 6.66842 5.99863 6.47274 6.20808 6.27018C5.63178 5.69962 5.09596 5.16913 4.53853 4.61725C4.35932 4.80438 4.17333 5.02004 3.96497 5.21133C3.61249 5.53494 3.2848 5.55256 2.98311 5.2875C2.64964 4.99453 2.62658 4.54017 2.93914 4.21165C3.13398 4.00685 3.3433 3.81583 3.51504 3.64886C2.81823 2.95224 2.15374 2.28792 1.48429 1.61867C1.48429 2.94901 1.4914 4.29646 1.4808 5.64376C1.47655 6.18431 1.41833 6.72437 1.41211 7.26496C1.4058 7.81302 1.44045 8.36144 1.44338 8.90977C1.44508 9.22926 1.40323 9.54928 1.41051 9.86838C1.42075 10.3168 1.47467 10.7644 1.4809 11.2128C1.49285 12.0721 1.48437 12.9317 1.48437 13.7912C1.48437 14.7005 1.48437 15.6099 1.48437 16.5193C1.48437 17.4039 1.48437 18.2885 1.48437 19.1731C1.48437 20.137 1.48437 21.1009 1.48437 22.0647C1.48437 27.4808 1.48437 32.8969 1.48437 38.313C1.48437 38.4515 1.48437 38.5901 1.48437 38.7302C13.8957 38.7302 26.2671 38.7302 38.5913 38.7302C37.9108 38.0524 37.2166 37.361 36.4844 36.6318C36.3075 36.823 36.1157 37.0524 35.9003 37.2571C35.6795 37.4669 35.2143 37.49 35.0177 37.3256C34.6491 37.0175 34.5755 36.7821 34.8225 36.4006C35.016 36.1017 35.2833 35.8504 35.4916 35.6084C34.9704 35.0791 34.4357 34.536 33.8996 33.9916C33.6343 34.2183 33.3763 34.4689 33.0878 34.6772C32.7623 34.9122 32.3007 34.7728 32.1251 34.417C31.9718 34.1065 31.9162 33.8301 32.499 33.3219Z" fill="#2B214A"/>
<path d="M20.0415 0.078125C20.116 0.130017 20.1454 0.217436 20.1928 0.228667C21.9213 0.637859 23.204 1.66142 24.0438 3.18763C24.6832 4.34963 24.9053 5.61844 24.6997 6.96619C24.4212 8.79228 23.47 10.1639 21.9759 11.1706C21.2664 11.6485 20.4585 11.9109 19.5935 12.0447C18.088 12.2775 16.6952 11.9561 15.463 11.1515C14.0076 10.2011 13.0771 8.84115 12.806 7.06996C12.5627 5.47989 12.8442 4.01698 13.7493 2.68614C14.618 1.40877 15.7973 0.571803 17.3154 0.2306C17.371 0.218105 17.4175 0.165203 17.4451 0.104629C18.2829 0.078125 19.1439 0.078125 20.0415 0.078125ZM15.548 9.41567C16.3175 10.1647 17.2554 10.6059 18.306 10.6883C19.8883 10.8123 21.2247 10.246 22.2684 9.02432C23.1802 7.95706 23.4853 6.74486 23.2909 5.3548C22.9795 3.12805 20.8394 1.28522 18.4459 1.47097C17.0058 1.58273 15.8704 2.22015 15.0317 3.31895C13.6117 5.17938 13.8877 7.79962 15.548 9.41567Z" fill="#2B214A"/>
<path d="M40.0781 22.6977C40.0261 22.7852 39.9434 22.8275 39.9264 22.8881C39.3354 25 38.0228 26.4497 35.9377 27.1406C34.3779 27.6575 32.831 27.5304 31.3602 26.7951C29.612 25.9213 28.5301 24.472 28.1513 22.5896C27.7583 20.6369 28.2628 18.8548 29.6037 17.3452C30.4846 16.3535 31.6 15.7167 32.884 15.4887C34.6948 15.1672 36.3833 15.5065 37.852 16.71C38.919 17.5843 39.6118 18.6735 39.9281 20.0107C39.9383 20.0539 39.9919 20.0868 40.0517 20.1013C40.0781 20.9391 40.0781 21.8001 40.0781 22.6977ZM29.6874 19.9689C29.4054 20.8102 29.3713 21.6599 29.5854 22.5225C29.8629 23.6403 30.4827 24.5279 31.4094 25.1935C32.3804 25.8907 33.4889 26.1666 34.6597 26.0009C35.8333 25.8348 36.8464 25.2898 37.6205 24.369C38.4938 23.3303 38.838 22.1039 38.6542 20.7819C38.4773 19.5096 37.8553 18.4456 36.7853 17.6851C35.6043 16.8456 34.3142 16.5675 32.9001 16.9505C31.3178 17.3789 30.2775 18.3954 29.6874 19.9689Z" fill="#2B214A"/>
<path d="M40.0781 7.38524C40.0263 7.45967 39.9375 7.48985 39.9279 7.53641C39.7031 8.62156 39.1469 9.54081 38.3849 10.3048C37.4301 11.2622 36.2678 11.8373 34.8977 12.0436C31.8844 12.4973 29.0096 10.5494 28.2417 7.63476C27.7442 5.74654 28.0883 3.96592 29.2905 2.39168C30.1518 1.26382 31.2772 0.537932 32.667 0.228059C32.71 0.218472 32.743 0.164314 32.7576 0.104518C33.5954 0.0781018 34.4564 0.0781018 35.3308 0.104605C35.4078 0.165477 35.4681 0.208757 35.5353 0.232772C35.98 0.391699 36.4589 0.487427 36.866 0.713103C38.4267 1.57812 39.4736 2.8666 39.9266 4.61296C39.9422 4.67291 40.0261 4.71512 40.0781 4.7656C40.0781 5.62661 40.0781 6.48762 40.0781 7.38524ZM29.4819 6.71034C29.6354 7.60555 29.9588 8.43078 30.5657 9.11473C32.0091 10.7413 34.428 11.2422 36.4591 10.0202C38.1295 9.01522 38.993 6.99901 38.5911 5.11825C38.3437 3.96067 37.7351 3.04073 36.7721 2.33646C35.6661 1.52767 34.4464 1.31362 33.1307 1.56623C31.9908 1.78509 31.0883 2.39288 30.3845 3.31471C29.6293 4.30382 29.3819 5.4272 29.4819 6.71034Z" fill="#2B214A"/>
<path d="M15.6445 22.8711C18.5725 25.7993 21.4812 28.7078 24.3893 31.6167C24.9266 32.1541 24.9318 32.7644 24.3682 33.2347C24.2193 33.3589 23.9786 33.4289 23.7799 33.4293C18.5341 33.4396 13.2882 33.4305 8.04248 33.4465C7.39398 33.4485 6.71119 32.8256 6.71597 32.1217C6.72542 30.7289 6.71876 29.3361 6.71876 27.9433C6.71876 24.1033 6.72051 20.2633 6.71639 16.4233C6.71591 15.9759 6.83892 15.6314 7.29573 15.4572C7.65163 15.3214 8.16985 15.4002 8.45894 15.6885C10.1591 17.384 11.856 19.0828 13.554 20.7805C14.2443 21.4708 14.9347 22.1612 15.6445 22.8711ZM12.8125 22.0703C11.2661 20.5238 9.7197 18.9774 8.14493 17.4025C8.14493 22.3155 8.14493 27.1624 8.14493 32.0144C13.0093 32.0144 17.8538 32.0144 22.7568 32.0144C19.4299 28.6876 16.1408 25.3985 12.8125 22.0703Z" fill="#2B214A"/>
<path d="M22.1084 5.96348C22.0952 6.50977 21.8165 6.79027 21.2979 6.79544C20.7 6.8014 20.102 6.79682 19.4531 6.79682C19.4531 7.4124 19.4536 8.01827 19.453 8.62415C19.4524 9.141 19.1778 9.44929 18.7163 9.45305C18.3023 9.45641 18.0476 9.14164 18.047 8.62405C18.0464 8.02773 18.0469 7.43141 18.0469 6.79682C17.4168 6.79682 16.8094 6.80031 16.202 6.7956C15.7953 6.79244 15.4568 6.55358 15.3917 6.23745C15.2881 5.73459 15.5741 5.39252 16.1033 5.391C16.7385 5.38919 17.3738 5.39057 18.0469 5.39057C18.0469 4.75987 18.0459 4.1524 18.0472 3.54493C18.0483 2.99767 18.2905 2.72566 18.7656 2.73433C19.1798 2.74189 19.4527 3.07418 19.453 3.57291C19.4534 4.16836 19.4531 4.7638 19.4531 5.39057C20.065 5.39057 20.6477 5.40598 21.2293 5.38548C21.6591 5.37032 21.9576 5.51908 22.1084 5.96348Z" fill="#2B214A"/>
<path d="M31.7325 22.1093C31.4631 22.0636 31.2044 22.067 31.0049 21.96C30.7368 21.816 30.6285 21.5258 30.7185 21.2275C30.8199 20.8914 31.0883 20.7085 31.4349 20.7069C33.2171 20.6987 34.9999 20.6777 36.7811 20.7203C37.2504 20.7315 37.4561 20.9487 37.4243 21.4731C37.4 21.8745 37.1514 22.1068 36.687 22.1079C35.0479 22.1116 33.4087 22.1093 31.7325 22.1093Z" fill="#2B214A"/>
<path d="M31.8142 4.82178C31.6654 4.61729 31.4839 4.44982 31.4186 4.24526C31.315 3.92038 31.452 3.62505 31.752 3.46088C32.0772 3.28285 32.3955 3.39063 32.6455 3.62645C33.1374 4.09045 33.6082 4.57672 34.1015 5.0675C34.5821 4.58973 35.0655 4.10805 35.5501 3.62763C35.8471 3.33323 36.3348 3.31332 36.5906 3.58301C36.8828 3.89111 36.8669 4.26436 36.5392 4.59336C36.054 5.08043 35.5645 5.56321 35.0746 6.04996C35.5645 6.53973 36.0466 7.01431 36.5197 7.49771C36.7676 7.75107 36.8538 8.07297 36.6983 8.38768C36.5494 8.68892 36.2485 8.81757 35.9165 8.74053C35.7556 8.70319 35.5948 8.59205 35.4727 8.4742C35.0056 8.02357 34.5544 7.55664 34.0577 7.05593C33.5604 7.55927 33.0798 8.04716 32.5974 8.53324C32.352 8.78059 31.8897 8.8409 31.6655 8.65851C31.3557 8.40637 31.2777 7.97531 31.5442 7.64758C31.809 7.32193 32.1322 7.04347 32.4329 6.74745C32.6445 6.53921 32.8612 6.33623 33.1002 6.10729C32.657 5.66466 32.2453 5.25341 31.8142 4.82178Z" fill="#2B214A"/>
</g>
<defs>
<clipPath id="clip0_139_53">
<rect width="40" height="40" fill="white"/>
</clipPath>
</defs>
</svg>
