<svg width="40" height="40" viewBox="0 0 40 40" fill="none" xmlns="http://www.w3.org/2000/svg">
<g clip-path="url(#clip0_139_91)">
<path d="M7.34375 40.0781C6.87331 40.0781 6.40287 40.0781 5.92237 40.0574C5.87606 40.0016 5.84568 39.9474 5.8027 39.9342C4.77573 39.6194 4.13848 38.3425 4.44818 37.3426C4.65471 36.6757 4.85714 36.0076 5.07021 35.3428C5.74876 33.2259 6.43079 31.1101 7.11314 28.9944C7.22951 28.6336 7.35413 28.2754 7.48003 27.9009C7.38166 27.8965 7.31704 27.8911 7.25242 27.8911C5.58763 27.8906 3.92255 27.9084 2.25816 27.8823C1.55006 27.8711 0.905979 27.6498 0.479927 27.0106C0.369784 26.8454 0.213314 26.711 0.078125 26.5625C0.0781253 18.2015 0.0781253 9.8404 0.0986877 1.46926C0.403915 1.1046 0.685284 0.747298 0.976243 0.397982C1.02944 0.334111 1.12862 0.310713 1.19378 0.25395C1.24827 0.206483 1.28406 0.137551 1.32813 0.078125C13.8038 0.078125 26.2794 0.078125 38.7651 0.0968794C39.277 0.466225 39.7746 0.820843 40.0016 1.42907C40.0022 1.43076 40.0515 1.41426 40.0781 1.40625C40.0781 9.7673 40.0781 18.1283 40.0593 26.4994C40.0041 26.5446 39.954 26.573 39.9332 26.6158C39.4899 27.5254 38.7259 27.8879 37.7551 27.8897C36.0777 27.893 34.4003 27.8906 32.6809 27.8906C32.9078 28.5973 33.1263 29.2806 33.3464 29.9634C34.1105 32.3332 34.8469 34.7124 35.6522 37.0682C36.0258 38.1611 35.4678 39.5937 34.3649 39.9343C34.3307 39.9449 34.319 40.0285 34.2969 40.0781C33.8264 40.0781 33.356 40.0781 32.8755 40.0572C32.8291 40.0013 32.7982 39.9454 32.7556 39.9343C31.9561 39.725 31.5876 39.1174 31.351 38.4004C31.2327 38.0419 31.3852 37.7516 31.7185 37.6171C32.0426 37.4863 32.322 37.6082 32.4977 37.9596C32.5548 38.0737 32.6154 38.1872 32.6596 38.3065C32.8254 38.7539 33.4974 38.9696 33.9143 38.7848C34.4029 38.5681 34.6344 38.0649 34.4695 37.5468C33.9955 36.0572 33.5253 34.5663 33.0448 33.0788C32.4872 31.3527 31.9201 29.6296 31.3623 27.9211C30.6693 27.9211 29.9894 27.9211 29.2787 27.9211C29.447 28.4525 29.6019 28.9479 29.7605 29.4422C30.3935 31.415 31.0281 33.3873 31.6607 35.3602C31.7745 35.715 31.6635 35.9755 31.3467 36.1167C30.9922 36.2745 30.7294 36.1927 30.5466 35.8355C30.4275 35.6026 30.3459 35.3505 30.2402 35.0888C23.473 35.0888 16.6818 35.0888 9.89583 35.0888C9.51223 36.2434 9.13268 37.3871 8.75218 38.5305C8.53135 39.1941 8.13807 39.6957 7.45041 39.9275C7.40329 39.9433 7.37878 40.0263 7.34375 40.0781ZM1.67728 1.47685C1.40282 1.66776 1.32152 1.92568 1.32187 2.26081C1.32996 10.0452 1.33632 17.8297 1.31345 25.614C1.3115 26.2772 1.78141 26.6505 2.35576 26.6499C14.1756 26.6376 25.9954 26.6377 37.8152 26.6495C38.3974 26.6501 38.8445 26.2444 38.8428 25.6383C38.8206 17.88 38.8281 10.1216 38.8281 2.36322C38.8281 1.59819 38.4864 1.25095 37.7143 1.25087C25.9595 1.24964 14.2048 1.2489 2.45004 1.25778C2.20804 1.25796 1.96614 1.3742 1.67728 1.47685ZM18.6328 31.0938C22.067 31.0938 25.5013 31.0938 28.9643 31.0938C28.6176 30.011 28.2807 28.9593 27.942 27.902C22.6941 27.902 17.4622 27.902 12.2122 27.902C11.8737 28.9606 11.5368 30.0142 11.1916 31.0938C13.6855 31.0938 16.1201 31.0938 18.6328 31.0938ZM14.0234 33.8281C19.2893 33.8281 24.5551 33.8281 29.8499 33.8281C29.7269 33.4413 29.5783 33.1102 29.5228 32.7643C29.4588 32.3656 29.2383 32.3373 28.9054 32.3377C23.0215 32.346 17.1376 32.3437 11.2537 32.3438C11.1495 32.3438 11.0397 32.3237 10.9429 32.3505C10.8571 32.3743 10.7392 32.4349 10.7156 32.5059C10.5733 32.9331 10.4541 33.3681 10.3191 33.8281C11.5517 33.8281 12.7485 33.8281 14.0234 33.8281ZM7.14929 38.6792C7.25305 38.5732 7.39789 38.4848 7.45276 38.3576C7.6082 37.9973 7.73577 37.624 7.85849 37.2507C8.62469 34.9195 9.38955 32.5879 10.1482 30.2543C10.3988 29.4833 10.6296 28.7059 10.882 27.8911C10.2282 27.8911 9.61765 27.8806 9.00823 27.9025C8.91683 27.9058 8.7847 28.0453 8.74961 28.1485C8.42617 29.0993 8.1201 30.056 7.80867 31.011C7.10693 33.1627 6.40956 35.3159 5.69959 37.4649C5.54357 37.9372 5.61969 38.315 6.01201 38.6341C6.36273 38.9194 6.72292 38.908 7.14929 38.6792Z" fill="#2B214A"/>
<path d="M3.67189 8.59378C3.67189 13.7864 3.67189 18.9401 3.67189 24.1171C14.6164 24.1171 25.5317 24.1171 36.4657 24.1171C36.4657 17.3362 36.4657 10.5707 36.4657 3.75003C36.3007 3.75003 36.1373 3.75003 35.9739 3.75003C28.7344 3.75003 21.495 3.74774 14.2555 3.75748C13.9301 3.75792 13.7041 3.62059 13.6181 3.36524C13.5362 3.1224 13.5132 2.79975 13.8167 2.6423C13.9796 2.55775 14.1798 2.50587 14.3633 2.5057C21.7199 2.49907 29.0766 2.49702 36.4333 2.5044C37.238 2.50521 37.7294 2.99656 37.7303 3.80593C37.7375 10.5897 37.7348 17.3734 37.7336 24.1572C37.7335 24.7828 37.2496 25.4054 36.4763 25.404C25.5391 25.3844 14.6017 25.3851 3.66442 25.4047C3.0189 25.4059 2.41827 24.874 2.41882 24.1515C2.42403 17.3678 2.4186 10.584 2.42633 3.80031C2.42725 2.99633 2.9183 2.50803 3.72868 2.50429C6.2416 2.49271 8.7547 2.49075 11.2675 2.51461C11.5154 2.51697 11.8474 2.66247 11.9804 2.85313C12.0807 2.99706 11.9746 3.34535 11.8649 3.55212C11.8022 3.67035 11.549 3.74112 11.3811 3.74194C8.97236 3.75377 6.56353 3.75003 4.15471 3.75003C4.01268 3.75003 3.87065 3.75003 3.67189 3.75003C3.67189 5.36414 3.67189 6.95943 3.67189 8.59378Z" fill="#2B214A"/>
<path d="M17.8906 17.1829C17.8905 17.4033 17.8983 17.5859 17.8887 17.7676C17.8698 18.1261 17.6176 18.3601 17.2635 18.3592C16.9098 18.3583 16.6458 18.1234 16.6441 17.7634C16.6366 16.1891 16.6379 14.6148 16.6432 13.0405C16.6442 12.7259 16.7509 12.4438 17.0899 12.3602C17.4062 12.2821 17.6736 12.388 17.8491 12.7032C18.7758 12.2912 19.664 12.2952 20.4114 12.9302C20.9317 12.761 21.4089 12.5256 21.9072 12.4659C22.4307 12.4031 22.9682 12.5168 23.4106 12.8822C23.7938 13.1988 24.0153 13.6193 24.0503 14.0874C24.1176 14.9894 24.1168 15.8965 24.1394 16.8016C24.1472 17.1137 24.1491 17.4264 24.1382 17.7383C24.1273 18.0474 23.9952 18.2943 23.6702 18.3541C23.2856 18.4249 23.0522 18.2709 22.9445 17.9042C22.9092 17.7838 22.8935 17.6536 22.8929 17.5278C22.8887 16.6041 22.8932 15.6803 22.8878 14.7565C22.887 14.619 22.8639 14.477 22.8243 14.3451C22.6694 13.8288 22.3878 13.6199 21.9395 13.6726C21.4681 13.7281 21.1206 14.0611 21.0997 14.5537C21.0554 15.6013 21.0311 16.6501 21.0217 17.6985C21.0185 18.048 20.878 18.2769 20.5569 18.3516C20.1756 18.4402 19.9632 18.2909 19.8438 17.8998C19.7998 17.7558 19.7702 17.6013 19.769 17.4512C19.7621 16.5926 19.7718 15.7338 19.7615 14.8752C19.7587 14.6474 19.7299 14.4133 19.6687 14.1945C19.5799 13.8768 19.3735 13.6781 19.0135 13.6692C18.6384 13.6599 18.2742 13.8668 18.1152 14.2751C18.002 14.5661 17.9158 14.8837 17.9004 15.1935C17.8682 15.8424 17.8906 16.4941 17.8906 17.1829Z" fill="#2B214A"/>
<path d="M5.70546 10.276C5.95362 9.53131 5.95362 9.53131 6.7384 9.53131C7.66226 9.53131 8.58611 9.53039 9.50997 9.53175C9.91766 9.53234 10.1568 9.75241 10.1562 10.1202C10.1555 10.5281 9.9266 10.7756 9.52028 10.7792C8.72661 10.7864 7.93283 10.7816 7.13909 10.783C7.08983 10.7831 7.04059 10.7945 6.97327 10.803C6.97327 11.6186 6.97327 12.4204 6.97327 13.2813C7.66515 13.2813 8.3619 13.271 9.05799 13.2879C9.2541 13.2927 9.45433 13.3604 9.642 13.4286C9.97774 13.5507 9.9871 13.8768 9.89684 14.1075C9.82584 14.289 9.56252 14.5016 9.37392 14.5123C8.58507 14.5572 7.79219 14.5312 6.97711 14.5312C6.97711 15.3963 6.97711 16.2332 6.97711 17.1094C7.81863 17.1094 8.64764 17.1089 9.47665 17.1096C9.89978 17.11 10.1467 17.3128 10.1561 17.665C10.1673 18.0786 9.93803 18.3476 9.50324 18.3541C8.47552 18.3695 7.4471 18.3739 6.41959 18.3525C5.92183 18.3422 5.70459 18.0314 5.70405 17.4156C5.70196 15.0474 5.70356 12.6792 5.70546 10.276Z" fill="#2B214A"/>
<path d="M29.735 12.7539C29.9186 12.9415 30.1691 13.0957 30.2079 13.2919C30.2468 13.4886 30.1318 13.7864 29.9804 13.932C29.8012 14.1044 29.5316 14.095 29.2727 13.9372C28.1295 13.2403 26.9222 13.9599 26.6164 14.965C26.3663 15.7867 27.0098 17.0351 28.0715 17.1328C28.6409 17.1852 29.0217 16.9999 29.4025 16.6563C29.6756 16.4099 29.9562 16.4236 30.2256 16.6723C30.4432 16.8732 30.4512 17.2487 30.2715 17.5064C29.5987 18.4713 28.143 18.5816 27.0937 18.1418C25.9196 17.6496 25.1928 16.4229 25.3198 15.1084C25.4421 13.843 26.3961 12.7596 27.6191 12.4954C28.3488 12.3377 29.0403 12.4189 29.735 12.7539Z" fill="#2B214A"/>
<path d="M32.2868 12.2151C32.5191 11.8911 32.7531 11.6015 32.9447 11.2862C33.0416 11.1267 33.0685 10.8967 32.8407 10.803C32.6468 10.7233 32.4762 10.7787 32.3787 11.0133C32.1987 11.4463 31.8496 11.6175 31.5172 11.467C31.2282 11.3362 31.1136 10.9319 31.2493 10.5225C31.4707 9.85492 32.1569 9.45617 32.9545 9.53171C33.5746 9.59045 34.1255 10.1914 34.2282 10.8203C34.3308 11.4493 34.0196 11.9178 33.7261 12.4003C33.5504 12.6891 33.3377 12.9554 33.1063 13.2816C33.4157 13.2816 33.648 13.2706 33.8789 13.2842C34.2222 13.3044 34.3737 13.5067 34.3761 13.8425C34.3788 14.2272 34.2295 14.441 33.8892 14.4482C33.1997 14.4629 32.5093 14.4683 31.8202 14.4473C31.3413 14.4326 31.1318 13.9035 31.4222 13.4627C31.6952 13.0482 31.9873 12.6464 32.2868 12.2151Z" fill="#2B214A"/>
<path d="M12.0827 17.0297C11.6705 16.9104 11.5126 16.6432 11.5698 16.2636C11.6188 15.9388 11.8874 15.7817 12.3354 15.7813C13.0098 15.7808 13.6843 15.7796 14.3587 15.7818C14.8615 15.7834 15.077 15.9602 15.0781 16.3645C15.0793 16.8122 14.8379 17.0301 14.3346 17.0309C13.5953 17.032 12.856 17.0309 12.0827 17.0297Z" fill="#2B214A"/>
<path d="M12.2326 13.674C12.931 13.6724 13.5946 13.6664 14.2581 13.6737C14.8427 13.6801 15.1129 13.9193 15.0752 14.3966C15.051 14.7025 14.8635 14.9072 14.5631 14.9149C13.7699 14.935 12.9758 14.924 12.1821 14.9208C11.8359 14.9195 11.6042 14.7301 11.5745 14.3999C11.5472 14.0967 11.6556 13.8171 12.0212 13.7453C12.0823 13.7332 12.1391 13.6993 12.2326 13.674Z" fill="#2B214A"/>
</g>
<defs>
<clipPath id="clip0_139_91">
<rect width="40" height="40" fill="white"/>
</clipPath>
</defs>
</svg>
