<svg width="40" height="40" viewBox="0 0 40 40" fill="none" xmlns="http://www.w3.org/2000/svg">
<g clip-path="url(#clip0_140_241)">
<path d="M40.0781 10.3544C39.6897 11.6484 38.8423 12.3412 37.5281 12.4434C37.3218 12.4594 37.258 12.5787 37.227 12.7372C37.1339 13.2135 36.9664 13.6633 36.7519 14.0956C36.6798 14.2411 36.7043 14.3659 36.7606 14.5044C37.5667 16.4881 37.9967 18.5576 38.0414 20.6916C38.1288 24.8637 36.9296 28.6395 34.4249 31.9888C34.1764 32.3211 33.7906 32.3957 33.5046 32.1872C33.2098 31.9723 33.1619 31.6049 33.4195 31.2555C34.3355 30.0129 35.1021 28.6883 35.6627 27.2478C35.7181 27.1054 35.7985 26.967 35.7826 26.8016C35.6578 26.6919 35.5082 26.7347 35.3714 26.7329C34.9158 26.7269 34.4601 26.7334 34.0044 26.7305C32.6876 26.7221 31.9542 25.9881 31.9467 24.6642C31.9411 23.6878 31.9473 22.7114 31.944 21.735C31.9419 21.1366 31.7725 20.9681 31.1789 20.9653C30.6452 20.9627 30.1114 20.9662 29.5776 20.9644C28.4232 20.9605 27.6682 20.229 27.6465 19.0722C27.6311 18.2523 27.6357 17.4318 27.6435 16.6117C27.6457 16.3836 27.5718 16.2264 27.3934 16.078C26.3595 15.2178 25.6877 14.1246 25.3685 12.8203C25.3025 12.5506 25.1857 12.4548 24.8962 12.4325C23.5994 12.3324 22.5142 11.2413 22.4741 10.0385C22.4273 8.63783 23.3188 7.52542 24.6929 7.3209C25.0888 7.26197 25.2395 7.12606 25.2232 6.70866C25.2093 6.3522 25.299 5.98647 25.3802 5.63339C25.4334 5.40155 25.3704 5.30794 25.1518 5.2398C24.0818 4.90611 22.9944 4.66137 21.8775 4.55446C21.593 4.52722 21.3074 4.51022 21.0234 4.47815C20.726 4.44455 20.645 4.57906 20.6475 4.86177C20.6586 6.12449 20.6521 7.38737 20.6519 8.6502C20.6518 8.76737 20.6539 8.88461 20.6506 9.00169C20.6387 9.42476 20.3835 9.70642 20.0236 9.69615C19.6773 9.68627 19.4316 9.41663 19.4295 9.00585C19.423 7.69099 19.4267 6.37607 19.4264 5.06117C19.4263 4.95703 19.4214 4.85272 19.4256 4.74877C19.4339 4.54427 19.3292 4.46785 19.1368 4.47982C17.7035 4.56895 16.2993 4.81395 14.9334 5.26385C14.7933 5.30999 14.7224 5.38225 14.7606 5.55339C14.8681 6.03519 14.9732 6.51898 14.9512 7.01846C14.9426 7.21323 15.0814 7.24829 15.2304 7.27426C15.5247 7.32556 15.82 7.36978 16.0982 7.48972C17.1947 7.96242 17.837 9.08043 17.6691 10.2305C17.5001 11.3889 16.4814 12.3431 15.2644 12.4326C14.9503 12.4557 14.845 12.572 14.781 12.8546C14.6958 13.2305 14.5569 13.5942 14.4438 13.9546C14.5541 14.0735 14.679 14.0339 14.7897 14.0342C16.0786 14.0376 17.3675 14.0387 18.6563 14.0355C19.2153 14.0341 19.4208 13.8206 19.4255 13.2475C19.4293 12.7919 19.4209 12.3361 19.4285 11.8806C19.4358 11.4489 19.6871 11.1792 20.0545 11.19C20.4156 11.2006 20.6436 11.4516 20.6491 11.8701C20.6567 12.4428 20.6607 13.0159 20.6488 13.5885C20.6301 14.4952 19.8829 15.252 18.9703 15.2602C17.317 15.275 15.6635 15.2717 14.0102 15.262C13.7275 15.2603 13.5191 15.333 13.3286 15.5493C12.9747 15.9513 12.5638 16.295 12.0989 16.5645C11.8953 16.6826 11.8157 16.8303 11.819 17.0688C11.8314 17.9409 11.8273 18.8133 11.822 19.6855C11.8155 20.7439 11.0555 21.5034 9.99932 21.5112C9.4786 21.5151 8.95782 21.5103 8.43708 21.5124C7.84359 21.5148 7.66921 21.6908 7.65737 22.2737C7.64628 22.8194 7.69729 23.3666 7.60934 23.9108C7.46829 24.7836 6.76473 25.4047 5.88185 25.4152C5.24882 25.4227 4.61562 25.4167 3.94868 25.4167C4.00599 25.9629 4.19154 26.4072 4.35502 26.8522C5.14119 28.992 6.31234 30.897 7.85683 32.5768C8.10939 32.8515 8.36867 32.96 8.73866 32.9505C9.6754 32.9264 10.6132 32.9449 11.5505 32.9404C12.0827 32.9378 12.3122 32.7094 12.315 32.1792C12.3196 31.307 12.3124 30.4347 12.3193 29.5625C12.3209 29.3545 12.2665 29.1995 12.1104 29.0471C11.35 28.305 11.0402 27.4146 11.3902 26.3846C11.7508 25.3234 12.5388 24.7388 13.6401 24.5945C13.8888 24.562 13.9634 24.4817 13.9774 24.2379C14.1658 20.956 16.4456 19.0065 18.7324 18.465C21.9789 17.6963 25.4177 19.8932 26.0377 23.1764C26.105 23.5328 26.1511 23.895 26.1781 24.2566C26.1946 24.4771 26.2608 24.564 26.4966 24.5934C27.8558 24.7626 28.773 25.6533 28.893 27.0106C29.0062 28.2904 28.065 29.5008 26.6828 29.6932C26.2106 29.7589 26.0107 29.9291 25.9312 30.3798C25.8438 30.8755 25.5786 31.3179 25.3362 31.8483C25.8291 31.8483 26.2531 31.8467 26.6769 31.8486C27.7997 31.8537 28.5383 32.587 28.5424 33.7015C28.5446 34.2851 28.5428 34.8688 28.5428 35.4458C28.7581 35.5184 28.8727 35.3879 28.997 35.309C29.9004 34.7355 30.7399 34.0797 31.5278 33.3547C31.9721 32.9459 32.5306 33.0981 32.6403 33.6368C32.7017 33.9387 32.5199 34.1261 32.3281 34.3078C30.9167 35.6449 29.3188 36.708 27.5533 37.5149C25.0037 38.6803 22.3171 39.2781 19.5212 39.1308C12.8396 38.7787 7.77438 35.6898 4.39248 29.9119C3.0176 27.5629 2.33033 24.9922 2.14966 22.2733C1.97317 19.6172 2.40954 17.0691 3.35798 14.5972C3.44343 14.3745 3.45724 14.1881 3.34918 13.968C3.1601 13.5828 3.01162 13.1794 2.93366 12.7537C2.90059 12.5731 2.82567 12.4589 2.60589 12.4423C1.32053 12.3455 0.497526 11.6559 0.0872407 10.4168C0.0781007 10.0243 0.0781007 9.65799 0.0947414 9.23409C0.518278 8.0772 1.29144 7.42961 2.46268 7.28114C2.69708 7.25142 2.81129 7.15225 2.78788 6.90205C2.76227 6.62849 2.81637 6.35919 2.86181 6.08935C3.34759 3.20478 5.85125 0.933003 9.01696 1.0218C11.156 1.08181 12.8536 2.05712 14.0207 3.87835C14.1806 4.12798 14.3214 4.15738 14.5885 4.06715C16.2254 3.51418 17.9187 3.25055 19.6394 3.20486C21.6145 3.15242 23.5549 3.42131 25.4374 4.03134C25.8193 4.15509 26.0032 4.0654 26.2292 3.74446C27.6841 1.67831 29.6894 0.743197 32.1945 1.09357C35.21 1.51534 37.3104 4.08706 37.3662 6.91404C37.3705 7.13387 37.4319 7.24974 37.6626 7.27787C38.9015 7.42893 39.7027 8.10977 40.0781 9.29694C40.0781 9.63732 40.0781 9.9777 40.0781 10.3544ZM26.5089 12.1323C26.7922 14.31 28.8616 16.3718 31.5571 16.2402C33.7176 16.1348 35.8416 14.3226 36.0544 12.1772C36.2444 10.261 36.261 8.32611 36.0561 6.41335C35.788 3.91043 33.4116 1.90807 30.5875 2.32137C28.1176 2.68284 26.4356 4.72659 26.4335 7.22812C26.4324 8.56867 26.4354 9.90923 26.4318 11.2498C26.431 11.5242 26.4435 11.7955 26.5089 12.1323ZM12.1627 14.9367C13.201 13.9524 13.7021 12.7315 13.7191 11.314C13.7355 9.94749 13.7199 8.58059 13.7243 7.21386C13.7255 6.84713 13.6768 6.48662 13.6061 6.13034C13.1629 3.89706 11.0724 2.15062 8.57769 2.27426C6.38888 2.38273 4.31831 4.21572 4.09109 6.39238C3.90695 8.15637 4.04084 9.92889 4.02247 11.6975C4.02008 11.9278 4.07653 12.1622 4.12959 12.3891C4.99777 16.1027 9.24044 17.4733 12.1627 14.9367ZM24.1227 31.3498C24.6491 30.5445 24.916 29.6664 24.9087 28.6987C24.8976 27.2538 24.908 25.8088 24.9058 24.3638C24.9054 24.143 24.906 23.9191 24.8724 23.7019C24.447 20.952 21.869 19.2654 19.4033 19.616C17.1484 19.9367 15.2852 21.928 15.2592 24.1966C15.2412 25.7716 15.257 27.3469 15.2531 28.922C15.2524 29.1972 15.288 29.4656 15.3426 29.7337C15.7905 31.9327 17.9419 33.659 20.1787 33.5583C21.8236 33.4843 23.1474 32.768 24.1227 31.3498ZM15.5733 37.2693C17.5866 37.8363 19.6325 37.9904 21.7141 37.7986C23.5455 37.6298 25.2885 37.1517 26.9684 36.4156C27.2134 36.3083 27.3308 36.1756 27.3227 35.8915C27.303 35.202 27.3204 34.5115 27.3147 33.8215C27.3103 33.298 27.0983 33.0828 26.5811 33.0772C25.9822 33.0707 25.383 33.0855 24.7845 33.071C24.4966 33.064 24.2709 33.1348 24.0434 33.3294C22.7077 34.4718 21.142 34.9626 19.4067 34.7657C16.8205 34.4724 14.8492 32.7152 14.1756 30.171C14.082 29.8175 13.9228 29.6937 13.543 29.7979C13.543 30.6064 13.5434 31.4111 13.5429 32.2158C13.5421 33.4578 12.8296 34.1657 11.5775 34.1678C10.9593 34.1689 10.3411 34.168 9.72292 34.168C11.4441 35.6342 13.3707 36.6482 15.5733 37.2693ZM36.6306 18.8612C36.4841 17.7429 36.228 16.6534 35.8065 15.5392C33.8026 17.4513 31.5387 17.9764 28.922 17.052C28.922 17.7603 28.9182 18.395 28.9233 19.0297C28.9274 19.5423 29.114 19.7293 29.633 19.7368C30.1535 19.7442 30.6767 19.7716 31.1943 19.7325C32.3216 19.6474 33.2502 20.4364 33.2264 21.7646C33.2082 22.7795 33.2201 23.795 33.2255 24.8102C33.2279 25.2675 33.4044 25.4465 33.8649 25.4519C34.5417 25.46 35.2186 25.4473 35.8953 25.4565C36.1431 25.4599 36.2646 25.375 36.3269 25.1213C36.8292 23.0765 36.9082 21.0124 36.6306 18.8612ZM6.96868 20.7548C7.34693 20.4225 7.78267 20.266 8.29087 20.282C8.79747 20.2981 9.30501 20.2878 9.8121 20.284C10.3595 20.2799 10.5878 20.0537 10.5942 19.4984C10.6007 18.9264 10.5959 18.3542 10.5947 17.7821C10.5936 17.2745 10.5929 17.2747 10.1096 17.3711C8.50871 17.6901 7.01694 17.4193 5.62516 16.5625C5.17374 16.2845 4.78911 15.9231 4.39649 15.5791C4.34175 15.6353 4.31815 15.6506 4.30736 15.6723C4.27865 15.73 4.25162 15.7892 4.23063 15.8501C3.49608 17.9811 3.27696 20.1792 3.40134 22.4172C3.42931 22.9205 3.53109 23.4196 3.59448 23.9212C3.61763 24.1043 3.69803 24.196 3.89699 24.1935C4.52103 24.1859 5.14557 24.2028 5.76924 24.1856C6.17472 24.1744 6.37507 23.9463 6.38138 23.5337C6.38814 23.0917 6.38637 22.6495 6.38264 22.2075C6.37806 21.6633 6.53996 21.1854 6.96868 20.7548ZM2.33386 11.14C2.47027 11.1424 2.60918 11.2366 2.78491 11.1012C2.78491 10.3922 2.78725 9.65468 2.78395 8.91722C2.78225 8.53821 2.6782 8.46847 2.30466 8.58051C1.71754 8.75661 1.31052 9.25035 1.28127 9.82195C1.25394 10.3561 1.63495 10.8552 2.33386 11.14ZM24.1625 8.88599C23.7454 9.31314 23.5703 9.79295 23.8322 10.3722C24.058 10.8715 24.5693 11.1817 25.1438 11.1611C25.2397 11.0503 25.2043 10.9144 25.2053 10.7884C25.2093 10.2422 25.2073 9.69596 25.2072 9.14972C25.2072 8.48075 25.0408 8.3835 24.4352 8.70181C24.355 8.74392 24.2826 8.8006 24.1625 8.88599ZM15.1129 11.1791C15.9003 11.0683 16.4084 10.5816 16.4516 9.89688C16.4864 9.34753 16.0254 8.75555 15.4261 8.57986C15.0522 8.47024 14.9523 8.5388 14.9502 8.92121C14.9468 9.55665 14.9466 10.1921 14.9516 10.8276C14.9526 10.9482 14.8996 11.095 15.1129 11.1791ZM38.81 10.1742C38.9961 9.41721 38.4646 8.63487 37.7077 8.54737C37.4876 8.52193 37.3646 8.58015 37.3681 8.83446C37.3774 9.50857 37.3776 10.183 37.3682 10.8571C37.3643 11.1332 37.5015 11.1998 37.7354 11.1519C38.2596 11.0445 38.6193 10.7427 38.81 10.1742ZM13.9704 27.6143C13.9704 27.1094 13.9679 26.6044 13.9716 26.0995C13.9732 25.8811 13.9007 25.802 13.6648 25.8482C13.0648 25.9659 12.5873 26.4214 12.5267 26.9685C12.4541 27.6241 12.7855 28.1612 13.4101 28.4005C13.8689 28.5762 13.9642 28.5151 13.9693 28.0407C13.9705 27.9242 13.9701 27.8076 13.9704 27.6143ZM27.5224 27.7004C27.8904 26.7397 27.2854 25.863 26.1959 25.8663C26.1959 26.6787 26.1899 27.4926 26.2 28.3063C26.2026 28.5162 26.3776 28.5049 26.521 28.4697C26.9427 28.3662 27.289 28.1535 27.5224 27.7004Z" fill="#2B214A"/>
<path d="M31.691 14.3932C30.688 14.4746 29.8284 14.2231 29.1064 13.5586C28.9195 13.3866 28.7711 13.1872 28.8276 12.9108C28.9213 12.4521 29.4395 12.2623 29.8332 12.5486C30.0536 12.709 30.2537 12.9001 30.5098 13.0038C31.2193 13.2911 31.8817 13.1921 32.4959 12.7437C32.6007 12.6672 32.6924 12.5704 32.803 12.5046C33.0981 12.3291 33.3857 12.3527 33.6084 12.6196C33.826 12.8803 33.8381 13.1705 33.5978 13.4314C33.0931 13.9795 32.4523 14.2694 31.691 14.3932Z" fill="#2B214A"/>
<path d="M34.5555 10.9975C34.3503 11.282 34.1086 11.3953 33.7981 11.2712C33.509 11.1556 33.4007 10.9249 33.4091 10.6219C33.4171 10.3376 33.4014 10.0523 33.4152 9.76835C33.4332 9.4015 33.6992 9.14064 34.0282 9.14433C34.3613 9.14805 34.6311 9.40677 34.6289 9.77727C34.6265 10.1741 34.7063 10.5776 34.5555 10.9975Z" fill="#2B214A"/>
<path d="M29.1675 10.6001C29.1188 11.0847 28.8829 11.3439 28.5359 11.3296C28.1842 11.3151 27.9509 11.0296 27.9431 10.594C27.9382 10.3209 27.9327 10.047 27.9464 9.77435C27.9653 9.40055 28.2276 9.13981 28.5593 9.1431C28.8906 9.14639 29.1466 9.40945 29.1639 9.78354C29.176 10.0433 29.1672 10.304 29.1675 10.6001Z" fill="#2B214A"/>
<path d="M6.41972 12.8565C6.7204 12.3347 7.07141 12.2672 7.51368 12.6195C8.44334 13.3601 9.29156 13.3584 10.2337 12.6142C10.5844 12.3372 10.9239 12.3324 11.173 12.6009C11.44 12.8889 11.3988 13.2189 11.054 13.5544C9.89216 14.6846 7.85545 14.6913 6.69352 13.5689C6.50001 13.382 6.34603 13.1788 6.41972 12.8565Z" fill="#2B214A"/>
<path d="M5.67183 9.36215C5.90553 9.14643 6.14694 9.08612 6.4081 9.21707C6.66959 9.34818 6.75423 9.58212 6.74665 9.86426C6.73865 10.1621 6.7579 10.4613 6.73732 10.758C6.71455 11.0861 6.5081 11.2833 6.19189 11.3211C5.88516 11.3578 5.61472 11.1943 5.5716 10.9067C5.49616 10.4035 5.40916 9.88098 5.67183 9.36215Z" fill="#2B214A"/>
<path d="M11.5712 11.3285C11.1524 11.2392 10.9797 10.9911 10.9887 10.5995C10.9947 10.3409 10.983 10.0819 10.9914 9.8235C11.0046 9.4156 11.2418 9.15757 11.5946 9.15313C11.9491 9.14868 12.1964 9.40502 12.2115 9.8081C12.2212 10.0664 12.217 10.3254 12.2134 10.5841C12.2069 11.0586 12.0836 11.2069 11.5712 11.3285Z" fill="#2B214A"/>
<path d="M20.4845 30.4282C20.8726 30.3219 21.1856 30.1501 21.467 29.9056C21.7824 29.6315 22.1716 29.6504 22.4022 29.9244C22.6111 30.1725 22.5643 30.5566 22.2917 30.8324C21.151 31.9864 19.067 32.006 17.9078 30.8736C17.5787 30.552 17.5271 30.178 17.7752 29.9117C18.0194 29.6497 18.3877 29.6383 18.7152 29.9291C19.2199 30.3773 19.8012 30.514 20.4845 30.4282Z" fill="#2B214A"/>
<path d="M17.3446 28.6178C16.9081 28.5676 16.7309 28.3092 16.7116 27.9308C16.6971 27.647 16.6935 27.36 16.7186 27.0773C16.7525 26.696 17.0075 26.4573 17.3437 26.4627C17.7187 26.4688 17.9229 26.6931 17.9581 27.0383C17.992 27.3707 17.9917 27.7122 17.9567 28.0445C17.9226 28.369 17.7308 28.5895 17.3446 28.6178Z" fill="#2B214A"/>
<path d="M22.6249 28.5913C22.2848 28.4355 22.1679 28.177 22.1755 27.8512C22.1825 27.553 22.1436 27.2525 22.2174 26.9573C22.2971 26.639 22.4971 26.458 22.8285 26.4661C23.1378 26.4736 23.3402 26.6401 23.4059 26.9479C23.4854 27.3209 23.4822 27.7007 23.4206 28.0722C23.3536 28.4772 23.1227 28.6191 22.6249 28.5913Z" fill="#2B214A"/>
</g>
<defs>
<clipPath id="clip0_140_241">
<rect width="40" height="40" fill="white"/>
</clipPath>
</defs>
</svg>
