<svg width="40" height="40" viewBox="0 0 40 40" fill="none" xmlns="http://www.w3.org/2000/svg">
<g clip-path="url(#clip0_140_252)">
<path d="M28.5156 0.078125C28.83 0.078125 29.1445 0.078125 29.518 0.0920584C29.9937 0.254309 30.3129 0.543126 30.6237 0.840372C35.6276 5.62581 37.5707 11.4661 36.3088 18.2441C35.3147 23.5835 32.3127 27.6588 27.7125 30.5421C26.3611 31.3892 24.902 32.0103 23.3737 32.4681C22.8927 32.6122 22.8827 32.6359 23.0135 33.124C23.0807 33.375 23.1705 33.622 23.2135 33.877C23.2684 34.2026 23.4502 34.3022 23.7589 34.2896C24.1357 34.2742 24.514 34.2788 24.891 34.2915C25.8111 34.3228 26.5719 34.7676 26.7464 35.5661C26.8886 36.217 27.1807 36.5029 27.8011 36.7094C28.9935 37.1063 29.9226 39.2567 28.3594 40.0781C22.8629 40.0781 17.3665 40.0781 11.8158 40.0592C11.2767 39.7645 10.9735 39.39 10.9827 38.7913C10.9991 37.7215 11.7064 36.8093 12.7964 36.5336C13.0965 36.4576 13.2413 36.3498 13.2781 36.0023C13.3736 35.1007 14.0265 34.4772 14.9279 34.3271C15.3427 34.258 15.7594 34.2928 16.1752 34.2887C16.8567 34.2819 16.8726 34.261 17.0148 33.5981C17.0761 33.3124 16.9824 33.2295 16.7122 33.209C16.22 33.1717 15.7271 33.1233 15.2395 33.0475C12.3782 32.6028 9.74949 31.5708 7.37326 29.9081C6.10825 29.023 4.97786 27.9882 3.95378 26.8352C3.5246 26.352 3.36516 25.7908 3.54694 25.1691C3.93892 23.8284 5.49049 23.539 6.49727 24.6132C6.65213 24.7785 6.78337 24.9384 6.99641 24.6985C7.16725 24.5061 7.47895 24.3513 7.16696 24.0333C7.09425 23.9591 7.03105 23.8755 6.96544 23.7946C4.37506 20.602 3.29661 16.9508 3.74563 12.8747C4.0063 10.5084 4.85063 8.33627 6.21927 6.378C6.58518 5.85445 6.98487 5.35756 7.42007 4.88996C7.73964 4.54659 8.09686 4.4895 8.37968 4.72948C8.6868 4.99008 8.68291 5.33374 8.36104 5.72707C8.2127 5.90834 8.04182 6.07216 7.90344 6.26029C7.76199 6.45257 7.55334 6.60876 7.51409 6.85864C7.63932 6.99389 7.78383 6.99188 7.92626 7.0049C8.519 7.05909 9.05872 6.90267 9.56796 6.60872C10.1677 6.26252 10.7097 5.83402 11.2614 5.42042C12.0567 4.82412 12.9071 4.54185 13.8915 4.88343C14.0133 4.92568 14.1446 4.94192 14.2725 4.96491C15.4886 5.18359 15.7222 5.05903 16.0903 3.87371C16.3738 2.9611 16.9536 2.34557 17.8221 1.98835C18.2116 1.82812 18.6117 1.69338 19.0541 1.52962C17.8434 1.44238 16.6913 1.48294 15.5489 1.70882C13.7512 2.06427 12.0948 2.75486 10.5798 3.78909C10.1386 4.09026 9.77827 4.04277 9.56348 3.69454C9.35751 3.3606 9.46628 3.02647 9.8813 2.74518C12.8427 0.738062 16.1114 -0.0931603 19.6598 0.305321C22.5774 0.632974 25.1836 1.75163 27.4053 3.69146C27.7656 4.00599 27.9046 3.77761 28.1275 3.57636C28.4244 3.30821 28.1729 3.1836 28.0075 3.02823C27.4675 2.52072 27.2617 1.91875 27.4803 1.19122C27.6435 0.648198 28.0628 0.348843 28.5156 0.078125ZM7.15127 10.5472C7.38823 10.8105 7.61848 11.0933 7.7204 11.4274C8.00906 12.3735 8.44379 13.2334 9.07078 13.9999C9.27395 14.2482 9.33268 14.5761 9.21155 14.8523C8.87352 15.623 9.23644 16.122 9.7951 16.5682C10.1508 16.8523 10.5276 17.1104 10.8463 17.4395C11.8181 18.4429 11.6557 19.6437 10.4336 20.3146C10.1106 20.4918 9.97253 20.7066 9.93631 21.073C9.84057 22.0412 9.46888 22.8344 8.43039 23.1252C8.3585 23.1453 8.27418 23.161 8.23918 23.2621C8.28367 23.4402 8.43397 23.5535 8.55723 23.6812C9.99079 25.1663 11.6715 26.2764 13.6163 26.9736C15.7148 27.7258 17.8695 27.9017 20.0711 27.573C20.316 27.5364 20.4193 27.4436 20.4519 27.1831C20.5587 26.3301 20.7719 25.4809 21.4663 24.9247C22.0466 24.46 22.2491 23.9284 22.1598 23.231C22.145 23.1157 22.1574 22.997 22.155 22.8799C22.1214 21.2628 21.2504 20.0813 19.7176 19.5771C19.3101 19.4431 18.8971 19.3254 18.5137 19.1265C16.9304 18.3053 16.2578 16.4717 16.964 14.8341C17.4569 13.6911 18.2146 12.7377 19.1641 11.9369C20.1111 11.1382 21.1853 10.6055 22.4258 10.4725C23.8224 10.3228 24.9821 10.7957 25.8821 11.8822C26.322 12.4132 26.8267 12.8456 27.5128 13.0313C27.747 13.0947 27.9479 13.0957 28.1163 12.9012C28.2955 12.6942 28.3609 12.4402 28.2262 12.2121C27.7096 11.3379 27.069 10.5982 25.9911 10.4241C25.1326 10.2854 24.2719 10.1599 23.4113 10.035C22.7484 9.93879 22.3246 9.572 22.1429 8.93103C21.9627 8.29532 22.19 7.78479 22.6517 7.35396C22.905 7.11767 23.2237 6.99443 23.5357 6.86614C23.7336 6.78477 23.7901 6.68152 23.7061 6.47695C23.5917 6.19825 23.529 5.91182 23.6093 5.60253C23.8246 4.77317 24.6805 4.10631 25.5356 4.11109C25.6254 4.11159 25.7294 4.1579 25.8407 4.05849C24.5555 3.10186 23.1655 2.41728 21.6508 1.98135C21.5038 1.93906 21.3777 1.95798 21.2546 2.06597C20.9224 2.35753 20.5092 2.48335 20.094 2.59707C19.5679 2.74122 19.0362 2.86453 18.523 3.05486C17.886 3.2911 17.4298 3.68697 17.2558 4.37304C17.1957 4.61001 17.0897 4.83853 16.9812 5.05944C16.6388 5.75704 16.1229 6.21705 15.3104 6.29727C14.6743 6.36007 14.0651 6.22812 13.4666 6.06421C12.9778 5.93034 12.58 6.04234 12.186 6.31906C11.5793 6.74519 11.0031 7.21453 10.3636 7.59442C9.30014 8.22612 8.19005 8.51882 6.97533 8.08054C6.76404 8.0043 6.62777 8.0691 6.53319 8.26555C6.36961 8.60532 6.20717 8.94596 6.03081 9.27913C5.91643 9.49522 5.95064 9.63094 6.17377 9.75132C6.53088 9.94398 6.83631 10.2096 7.15127 10.5472ZM28.8779 4.62202C28.6029 4.84564 28.7765 5.01646 28.935 5.20519C31.4501 8.2005 32.6171 11.6415 32.3798 15.5574C32.2582 17.563 31.7183 19.4454 30.8111 21.229C30.5099 21.8213 30.171 22.3931 29.7729 22.9259C29.5366 23.2421 29.2097 23.3019 28.9169 23.1122C28.6327 22.928 28.5552 22.585 28.7291 22.2493C28.7827 22.1459 28.8529 22.0506 28.9187 21.9539C30.2057 20.0617 30.9423 17.9632 31.1273 15.6945C31.293 13.6611 31.0145 11.6718 30.2448 9.76532C29.5783 8.11434 28.6271 6.65094 27.3765 5.38442C27.2529 5.25928 27.1291 5.01678 26.8978 5.20409C26.4921 5.53253 26.0522 5.55841 25.5729 5.42484C25.2992 5.34856 25.1425 5.54324 24.9803 5.71657C24.8069 5.90193 24.9419 6.04479 25.0301 6.20373C25.3764 6.82768 25.1657 7.49931 24.5213 7.81374C24.2409 7.95054 23.9482 8.06177 23.6658 8.19462C23.5088 8.26851 23.3594 8.37251 23.3932 8.57646C23.4253 8.76993 23.5958 8.78864 23.7534 8.8122C24.421 8.912 25.0855 9.04474 25.7566 9.10715C27.4507 9.2647 28.5814 10.2149 29.3577 11.6446C29.7528 12.3723 29.6032 13.1007 29.1031 13.7262C28.6423 14.3024 28.0024 14.4119 27.2998 14.2659C26.3351 14.0654 25.5845 13.5311 24.9889 12.7722C24.2325 11.8084 23.2401 11.5228 22.0997 11.8134C20.1178 12.3184 18.8502 13.6699 18.0731 15.4884C17.6599 16.4553 18.1563 17.5509 19.1087 18.0127C19.4462 18.1762 19.8113 18.2848 20.1681 18.4059C21.8006 18.9603 22.8275 20.0759 23.2693 21.7373C23.4633 22.4667 23.3559 23.2137 23.3987 23.9519C23.4356 24.5901 23.1521 25.0802 22.6967 25.4923C22.5713 25.6058 22.4287 25.7027 22.3161 25.8272C21.9878 26.1899 21.7787 26.6014 21.8113 27.1121C22.0151 27.1411 22.1569 27.0675 22.302 27.0183C23.8876 26.4813 25.3059 25.652 26.5781 24.5676C26.7561 24.4159 26.9292 24.2534 27.1261 24.1302C27.4082 23.9538 27.6864 24.0159 27.8991 24.2585C28.1136 24.5031 28.1243 24.7787 27.914 25.0401C27.833 25.1408 27.7388 25.2335 27.6398 25.317C23.0881 29.1504 18.0258 29.9908 12.4776 27.8687C11.0434 27.3201 9.7717 26.4808 8.60933 25.4772C8.49984 25.3827 8.40701 25.2257 8.21015 25.3133C7.73691 25.524 7.67724 25.8457 8.07436 26.173C12.4757 29.8014 17.4352 30.817 22.849 29.0757C29.755 26.8544 34.1203 19.9568 33.1907 12.7424C32.7953 9.67402 31.5875 6.97359 29.5936 4.61746C29.2714 4.23674 29.2686 4.23909 28.8779 4.62202ZM35.4392 14.7999C35.4439 13.8227 35.3697 12.8514 35.2132 11.8869C34.5432 7.75985 32.6358 4.31421 29.5095 1.54121C29.4416 1.48098 29.3704 1.42201 29.2928 1.37556C29.0961 1.2577 28.9152 1.29502 28.7682 1.46313C28.616 1.63723 28.6336 1.82044 28.7755 1.99346C28.8246 2.05337 28.8852 2.10413 28.9423 2.15721C33.219 6.13344 35.1006 11.0098 34.4023 16.8286C33.991 20.2562 32.5761 23.2624 30.2217 25.7632C26.2882 29.9413 21.4173 31.6668 15.7186 30.9635C12.7574 30.5981 10.1206 29.4216 7.77723 27.5801C6.97616 26.9506 6.25612 26.2372 5.57336 25.4831C5.2947 25.1753 4.96764 25.1755 4.79376 25.4637C4.63022 25.7348 4.82439 25.907 4.97701 26.0777C8.32696 29.8237 12.5303 31.792 17.5359 31.9873C20.3075 32.0954 22.9892 31.5581 25.4714 30.3029C31.7865 27.1095 35.0894 21.9388 35.4392 14.7999ZM5.56533 10.8883C5.34612 10.9419 5.37384 11.1449 5.33422 11.2946C4.83394 13.185 4.78897 15.0975 5.1276 17.0145C5.43215 18.7384 6.09652 20.3265 7.04739 21.798C7.22437 22.0718 7.39105 22.1172 7.71693 22.044C8.37212 21.8968 8.6943 21.5051 8.69739 20.8762C8.70142 20.0547 9.09519 19.5541 9.81342 19.2128C10.3109 18.9764 10.3355 18.6953 9.92426 18.3088C9.59339 17.9979 9.21084 17.7426 8.87182 17.4396C8.08273 16.7344 7.54648 15.9249 7.90184 14.7982C7.96408 14.6009 7.87009 14.4705 7.76033 14.3412C7.26317 13.7558 6.92595 13.0842 6.71798 12.3511C6.53768 11.7156 6.16479 11.2422 5.56533 10.8883ZM19.0234 37.6928C17.2145 37.6931 15.4055 37.6931 13.5965 37.6938C13.0694 37.694 12.6173 37.8429 12.3614 38.3495C12.1621 38.744 12.2381 38.8749 12.6679 38.8751C17.6133 38.877 22.5588 38.8774 27.5042 38.8763C27.9176 38.8762 27.9922 38.7598 27.814 38.38C27.5567 37.8317 27.0735 37.6927 26.5197 37.6928C24.047 37.6932 21.5743 37.6929 19.0234 37.6928ZM25.5445 36.3745C25.6764 35.8952 25.4388 35.5767 24.9101 35.5757C21.6821 35.5695 18.4541 35.572 15.2261 35.5731C15.1489 35.5731 15.0669 35.5759 14.9951 35.6006C14.7063 35.7001 14.5235 35.902 14.5532 36.2134C14.5857 36.5535 14.8773 36.4514 15.077 36.4517C18.4091 36.4574 21.7413 36.4564 25.0734 36.4551C25.2148 36.455 25.3606 36.4797 25.5445 36.3745ZM20.5858 34.2874C20.7159 34.2873 20.846 34.288 20.9761 34.2871C22.2141 34.2788 22.0201 34.4138 21.7558 33.2569C21.6972 33.0006 21.576 32.8957 21.2824 32.9584C20.5452 33.116 19.7929 33.1841 19.0408 33.2236C18.3731 33.2586 18.3814 33.2484 18.2277 33.8993C18.1533 34.2141 18.2678 34.2932 18.5566 34.2889C19.2069 34.2792 19.8573 34.2868 20.5858 34.2874Z" fill="#2B214A"/>
</g>
<defs>
<clipPath id="clip0_140_252">
<rect width="40" height="40" fill="white"/>
</clipPath>
</defs>
</svg>
