<svg width="40" height="40" viewBox="0 0 40 40" fill="none" xmlns="http://www.w3.org/2000/svg">
<g clip-path="url(#clip0_140_276)">
<path d="M32.854 0.078125C33.0048 0.115289 33.1176 0.158282 33.2336 0.188691C34.1207 0.421231 34.8546 0.891225 35.3907 1.63567C35.5417 1.84532 35.6971 1.90638 35.9376 1.89949C36.2748 1.88982 36.6171 1.88806 36.95 1.93438C38.0286 2.08444 38.7388 2.98072 38.6741 4.07822C38.6159 5.06403 37.7677 5.878 36.7404 5.92456C36.4566 5.93742 36.1718 5.92651 35.8614 5.92651C35.8543 6.06041 35.8434 6.17252 35.8433 6.28464C35.8422 7.76887 35.8426 9.2531 35.8425 10.7373C35.8425 10.8415 35.848 10.9461 35.84 11.0497C35.8093 11.4428 35.5734 11.6731 35.2222 11.6586C34.8825 11.6446 34.6754 11.4252 34.673 11.0336C34.6659 9.84889 34.6701 8.66408 34.6699 7.4793C34.6699 7.33746 34.6699 7.19561 34.6699 7.04502C34.6198 7.04167 34.5724 7.02305 34.5496 7.0392C33.7503 7.60674 32.8518 7.76563 31.8889 7.75101C30.3024 7.72693 28.7153 7.74448 27.1941 7.74448C27.1169 8.18777 27.1551 8.66894 26.9439 8.98173C26.7387 9.28576 26.2777 9.41715 25.8958 9.64408C25.9772 9.75441 26.107 9.92572 26.2319 10.1006C26.5787 10.5863 26.5911 10.9937 26.1884 11.4437C25.8619 11.8085 25.5027 12.1631 25.1002 12.4375C23.8149 13.3141 22.6306 14.3034 21.559 15.4295C21.5231 15.4672 21.4872 15.5051 21.4487 15.5401C21.1738 15.7896 20.8469 15.8065 20.608 15.5845C20.3539 15.3482 20.3357 14.9932 20.6226 14.7223C21.445 13.9457 22.2731 13.1736 23.1276 12.4328C23.5481 12.0683 24.0371 11.7839 24.4848 11.4494C24.753 11.2489 25.0012 11.0217 25.2594 10.8057C24.9845 10.2615 24.387 9.90433 24.5595 9.2237C24.7386 8.51737 25.3948 8.49151 25.9623 8.3C25.7979 7.11591 25.2134 6.23887 24.1643 5.71871C23.0295 5.15602 21.894 5.22399 20.8277 5.91876C18.0383 7.73615 15.7523 10.0559 13.9985 12.8857C13.5279 13.6451 13.1534 14.4634 12.7178 15.2453C12.5828 15.4878 12.5851 15.6984 12.6991 15.9401C12.7984 16.1505 12.872 16.374 12.9449 16.5958C13.1693 17.2787 12.8058 17.874 12.0854 17.9434C11.7909 17.9718 11.7293 18.0881 11.7045 18.3514C11.5958 19.5072 11.7768 20.6201 12.1086 21.6952C12.6827 20.4156 13.2045 19.1136 13.8374 17.868C15.7987 14.0081 18.4869 10.7653 22.1111 8.34278C22.1758 8.29952 22.2384 8.25279 22.3053 8.21319C22.6376 8.01649 22.9818 8.07659 23.1631 8.36099C23.3398 8.63811 23.2713 8.95455 22.9666 9.17695C22.5466 9.48345 22.1076 9.76441 21.6941 10.0792C18.291 12.6707 15.8734 16.0234 14.1547 19.9053C13.7823 20.7463 13.4827 21.6194 13.151 22.4783C13.1334 22.5239 13.1291 22.5746 13.0932 22.7407C13.5796 22.4718 14.0026 22.2669 14.3954 22.015C15.2488 21.4676 15.945 20.7512 16.5376 19.9314C17.2385 18.962 17.9346 17.989 18.6498 17.0302C18.7654 16.8752 18.9638 16.7017 19.1345 16.6899C19.3164 16.6773 19.561 16.8023 19.6882 16.9466C19.8799 17.164 19.805 17.4312 19.6344 17.6615C19.1161 18.3616 18.6001 19.0634 18.0838 19.765C18.0391 19.8258 17.9991 19.8901 17.9025 20.0335C18.0986 20.0335 18.2305 20.0335 18.3623 20.0335C21.5391 20.0335 24.7159 20.0335 27.8927 20.0336C28.5904 20.0336 28.8909 20.2145 28.8838 20.6301C28.8767 21.0407 28.5861 21.2068 27.8744 21.2068C24.3852 21.2068 20.8959 21.2096 17.4067 21.2013C17.1353 21.2007 16.9583 21.2835 16.7757 21.4875C15.7232 22.6631 14.4584 23.5206 12.9425 23.9986C12.8049 24.042 12.6541 24.2019 12.6063 24.341C12.4893 24.6818 12.429 25.0421 12.3329 25.4497C12.6423 25.4497 12.9215 25.4439 13.2004 25.4508C14.0584 25.4719 14.6001 26.0251 14.6112 26.8841C14.6145 27.1351 14.5893 27.3623 14.8397 27.5725C14.9629 27.6759 14.9944 28.1337 14.8924 28.217C14.4836 28.5511 14.6485 28.9595 14.6043 29.3888C15.0999 29.3888 15.564 29.385 16.0281 29.3897C16.958 29.399 17.5083 29.9465 17.5163 30.8702C17.5206 31.3639 17.5171 31.8577 17.5171 32.4118C17.6838 32.4118 17.8332 32.4118 17.9826 32.4118C22.4353 32.4118 26.8881 32.4199 31.3407 32.4062C32.4943 32.4027 33.6328 32.3992 34.6696 33.2154C34.6696 32.9884 34.6696 32.8527 34.6696 32.7169C34.6696 26.5326 34.6695 20.3483 34.6696 14.164C34.6697 13.5304 34.825 13.2842 35.2302 13.2732C35.6537 13.2616 35.8421 13.5351 35.8421 14.164C35.8423 20.6998 35.8422 27.2356 35.8422 33.7715C35.8422 33.9115 35.8422 34.0516 35.8422 34.2285C36.1395 34.2285 36.4094 34.2232 36.6791 34.2294C37.7282 34.2534 38.6037 35.0568 38.6729 36.055C38.7499 37.1668 38.0319 38.0651 36.9345 38.2299C35.9695 38.3748 35.5082 38.5844 34.738 39.2105C34.2033 39.6451 33.5985 39.9278 32.9006 40.0489C22.7588 40.0781 12.6269 40.0781 2.45152 40.0518C1.7352 39.7267 1.46232 39.2138 1.46836 38.4758C1.48891 35.9638 1.4753 33.4515 1.4767 30.9393C1.47726 29.9355 2.01489 29.3944 3.01277 29.3891C3.46257 29.3867 3.91238 29.3887 4.38155 29.3887C4.35381 28.9476 4.47873 28.5515 4.089 28.2132C3.86629 28.0199 3.98507 27.7137 4.19474 27.4828C4.28524 27.3831 4.36772 27.2335 4.37144 27.1043C4.40591 25.9047 4.86851 25.4492 6.08054 25.4487C6.67417 25.4484 7.2678 25.4487 7.86111 25.4487C7.86111 19.4896 7.86111 13.585 7.86111 7.67819C7.15794 7.5204 6.46405 7.28234 6.04589 6.7306C5.51103 6.02488 4.88604 5.8749 4.05594 5.90564C3.01862 5.94404 2.16935 5.05779 2.11222 4.04507C2.05253 2.9869 2.77792 2.08174 3.83578 1.93648C4.21988 1.88374 4.61462 1.89075 5.00383 1.89972C5.23182 1.90497 5.37572 1.84724 5.51745 1.65128C6.03676 0.933309 6.73177 0.452998 7.59152 0.216506C7.696 0.187767 7.79114 0.125079 7.89061 0.0781251C16.1995 0.0781251 24.5085 0.0781251 32.854 0.078125ZM17.5173 37.8516C17.5173 38.1978 17.5173 38.544 17.5173 38.8896C21.5333 38.8896 25.51 38.8896 29.5384 38.8896C28.8541 38.1119 28.493 37.2493 28.4911 36.2471C28.4892 35.2445 28.8509 34.3821 29.531 33.602C25.5039 33.602 21.529 33.602 17.51 33.602C17.51 33.8492 17.5254 34.0814 17.5062 34.3108C17.4795 34.6314 17.2678 34.8055 16.9661 34.8253C16.679 34.8441 16.4649 34.6938 16.386 34.405C16.3525 34.2822 16.3467 34.1489 16.3463 34.0203C16.3433 33.018 16.3333 32.0154 16.351 31.0134C16.3568 30.6835 16.2722 30.5541 15.9173 30.5549C11.6345 30.5651 7.35169 30.5642 3.06892 30.5561C2.74725 30.5555 2.6412 30.654 2.64268 30.9809C2.65397 33.4802 2.65297 35.9796 2.64365 38.479C2.6425 38.788 2.71298 38.9139 3.05528 38.913C7.35106 38.9023 11.6469 38.9034 15.9427 38.9115C16.247 38.912 16.3629 38.8235 16.3499 38.5122C16.3299 38.0314 16.3355 37.5489 16.3483 37.0675C16.3586 36.6797 16.6083 36.4211 16.9385 36.4219C17.2715 36.4226 17.5036 36.6795 17.5154 37.0714C17.5224 37.3055 17.5171 37.5399 17.5173 37.8516ZM15.5859 6.57175C16.2888 6.57174 16.992 6.5826 17.6944 6.56367C17.8588 6.55924 18.0431 6.4859 18.1795 6.3895C18.8057 5.94715 19.4027 5.46252 20.0382 5.03467C22.3087 3.50609 25.0252 4.07359 26.5269 6.36847C26.5829 6.45399 26.6915 6.56124 26.777 6.56258C27.6796 6.5767 28.5825 6.57132 29.515 6.57132C28.1319 4.7727 28.1439 3.02108 29.5153 1.25041C29.1823 1.25041 28.8852 1.25041 28.5881 1.25041C21.9757 1.25041 15.3633 1.25256 8.75089 1.24829C7.65324 1.24758 6.80084 1.68661 6.26798 2.64494C5.29757 4.3902 6.54933 6.54061 8.55707 6.56327C10.8737 6.5894 13.1909 6.57088 15.5859 6.57175ZM11.6345 14.801C12.8378 12.1504 14.5251 9.83805 16.6271 7.76595C14.0621 7.76595 11.5706 7.76595 9.07422 7.76595C9.07422 13.6637 9.07422 19.5399 9.07422 25.4227C9.77683 25.4227 10.4587 25.4227 11.1336 25.4227C11.2577 24.9045 11.3915 24.4154 11.4852 23.9188C11.5206 23.7314 11.5114 23.5073 11.4411 23.3327C10.8079 21.7603 10.4179 20.15 10.516 18.4359C10.5643 17.5921 10.8628 16.9793 11.7608 16.7696C11.5156 16.1328 11.201 15.5178 11.6345 14.801ZM6.44685 28.5161C6.15315 28.5161 5.85945 28.5161 5.57308 28.5161C5.57308 28.8324 5.57308 29.0993 5.57308 29.3705C8.19973 29.3705 10.8051 29.3705 13.4112 29.3705C13.4112 29.0757 13.4112 28.8 13.4112 28.5161C11.0974 28.5161 8.81094 28.5161 6.44685 28.5161ZM30.4614 4.635C29.9932 3.22952 30.884 1.94764 32.3724 1.89934C32.8981 1.88227 33.4248 1.89661 33.9915 1.89661C33.2513 1.11773 31.4896 0.882335 30.3566 2.11655C29.339 3.22505 29.4523 4.97105 30.6028 5.94673C31.5832 6.77821 33.2751 6.77786 33.9637 5.92708C33.4695 5.92708 32.9903 5.92159 32.5112 5.92824C31.5738 5.94126 30.8872 5.54779 30.4614 4.635ZM32.857 38.2609C32.5845 38.2482 32.3086 38.2584 32.04 38.2189C30.8218 38.0401 30.0654 36.8598 30.4005 35.6791C30.642 34.8283 31.4284 34.2427 32.3586 34.2305C32.8936 34.2235 33.4288 34.2293 34.0354 34.2293C32.8637 33.2636 31.2364 33.418 30.2935 34.5166C29.3576 35.6069 29.477 37.2878 30.5577 38.2372C31.5499 39.1088 33.19 39.1324 33.962 38.2609C33.6044 38.2609 33.2688 38.2609 32.857 38.2609ZM9.57029 27.3433C10.8546 27.3433 12.139 27.3433 13.4205 27.3433C13.4621 26.6218 13.4621 26.6218 12.7812 26.6218C11.0892 26.6218 9.39712 26.6218 7.70509 26.6218C7.10637 26.6218 6.50747 26.6303 5.909 26.618C5.63736 26.6125 5.52391 26.7163 5.55006 26.986C5.5608 27.0967 5.55184 27.2093 5.55184 27.3433C6.89298 27.3433 8.19257 27.3433 9.57029 27.3433ZM34.5356 4.75677C34.626 4.75677 34.7164 4.75677 34.7429 4.75677C34.7429 4.18375 34.7429 3.63001 34.7429 3.06545C34.0036 3.06545 33.2233 3.05745 32.4433 3.06808C31.8606 3.07602 31.4799 3.43215 31.4912 3.92898C31.5025 4.42803 31.8845 4.75273 32.4743 4.75588C33.1377 4.75942 33.8011 4.75674 34.5356 4.75677ZM31.4915 36.2805C31.6211 36.8478 31.8694 37.0784 32.4206 37.0874C33.2142 37.1004 34.0082 37.0907 34.742 37.0907C34.742 36.5214 34.742 35.9672 34.742 35.3996C34.0062 35.3996 33.2254 35.3958 32.4446 35.4009C31.8751 35.4046 31.6116 35.636 31.4915 36.2805ZM3.40646 4.34595C3.77384 4.89821 4.31881 4.74327 4.80468 4.7412C4.80468 4.16744 4.80468 3.63067 4.80468 3.09363C3.60473 2.95749 3.07085 3.40311 3.40646 4.34595ZM35.8503 3.81149C35.864 4.45771 36.311 4.86562 36.8557 4.72905C37.2627 4.62704 37.522 4.28456 37.5047 3.87202C37.4876 3.46535 37.1881 3.14248 36.7747 3.0852C36.3553 3.02708 36.0336 3.25939 35.8503 3.81149ZM35.8505 36.3456C35.9835 36.8682 36.3365 37.1399 36.7894 37.068C37.2472 36.9954 37.5462 36.6109 37.502 36.1516C37.4626 35.7423 37.1008 35.409 36.6871 35.4011C36.2205 35.3922 35.8895 35.7386 35.8505 36.3456Z" fill="#2B214A"/>
<path d="M21.4844 22.3232C23.709 22.3233 25.8947 22.3206 28.0803 22.328C28.2676 22.3287 28.5019 22.3402 28.6292 22.4477C28.7648 22.5623 28.8784 22.8075 28.8556 22.9759C28.8327 23.1443 28.6549 23.3282 28.4966 23.4299C28.3702 23.5111 28.171 23.4947 28.0041 23.4948C24.4004 23.4979 20.7967 23.4971 17.1931 23.497C17.102 23.497 17.0103 23.5021 16.92 23.4933C16.5289 23.4555 16.3019 23.2148 16.3216 22.8647C16.3404 22.5309 16.565 22.3284 16.957 22.3257C17.9327 22.3189 18.9084 22.3233 19.8841 22.3233C20.4045 22.3232 20.9249 22.3232 21.4844 22.3232Z" fill="#2B214A"/>
<path d="M21.4844 25.7754C20.0012 25.7754 18.5572 25.7774 17.1131 25.7724C16.9604 25.7719 16.7515 25.7846 16.6675 25.6967C16.5143 25.5364 16.3301 25.2911 16.3548 25.1077C16.3795 24.9246 16.6348 24.7624 16.8097 24.6157C16.8641 24.5701 16.986 24.6034 17.077 24.6034C20.7587 24.6031 24.4405 24.6031 28.1222 24.6032C28.1872 24.6032 28.2525 24.6011 28.3173 24.605C28.6572 24.6257 28.8509 24.8258 28.875 25.1454C28.8997 25.4724 28.7087 25.6859 28.3908 25.7574C28.2539 25.7882 28.1061 25.7748 27.9632 25.7748C25.8166 25.7757 23.67 25.7754 21.4844 25.7754Z" fill="#2B214A"/>
<path d="M18.2032 26.8751C21.4944 26.8751 24.7465 26.875 27.9987 26.8755C28.1287 26.8755 28.2621 26.8633 28.3879 26.8878C28.6947 26.9477 28.8782 27.1541 28.8773 27.4579C28.8764 27.7788 28.6883 27.9884 28.3587 28.0417C28.2825 28.054 28.2029 28.0466 28.1249 28.0466C24.4434 28.0468 20.762 28.0468 17.0805 28.0467C17.0155 28.0467 16.9501 28.0504 16.8855 28.0448C16.5496 28.0158 16.3236 27.783 16.3212 27.4668C16.3188 27.15 16.5397 26.8971 16.8765 26.882C17.305 26.863 17.7348 26.876 18.2032 26.8751Z" fill="#2B214A"/>
<path d="M23.9917 16.7124C25.3949 16.7124 26.76 16.7114 28.1252 16.7129C28.6111 16.7135 28.888 16.9299 28.8853 17.2983C28.8825 17.6654 28.6011 17.8837 28.1184 17.8843C26.6362 17.8858 25.1541 17.8868 23.6719 17.8837C23.2185 17.8827 22.9597 17.66 22.9617 17.2911C22.9638 16.921 23.2147 16.7188 23.6807 16.7126C23.7717 16.7114 23.8627 16.7124 23.9917 16.7124Z" fill="#2B214A"/>
<path d="M28.2836 13.5221C28.7221 13.5751 28.888 13.8301 28.8896 14.218C28.8905 14.4251 28.9034 14.6345 28.8786 14.8389C28.8388 15.1666 28.5695 15.393 28.272 15.3787C27.9672 15.3641 27.7392 15.1268 27.72 14.7891C27.709 14.5954 27.7211 14.4005 27.715 14.2063C27.7031 13.8258 27.8715 13.5915 28.2836 13.5221Z" fill="#2B214A"/>
<path d="M27.0323 14.3121C27.031 14.5155 27.047 14.686 27.0246 14.8514C26.9805 15.1784 26.77 15.3707 26.4496 15.3728C26.1288 15.3749 25.9142 15.1842 25.869 14.8582C25.8426 14.6675 25.8582 14.4706 25.8594 14.2766C25.8621 13.7983 26.0786 13.5213 26.4464 13.5214C26.8126 13.5215 27.018 13.7863 27.0323 14.3121Z" fill="#2B214A"/>
<path d="M12.5 31.8063C12.9686 31.8063 13.3982 31.8006 13.8277 31.808C14.2762 31.8158 14.5033 32.0296 14.5058 32.4827C14.5143 33.9795 14.5142 35.4765 14.506 36.9734C14.5035 37.4465 14.2782 37.655 13.7983 37.6554C10.9347 37.6579 8.07105 37.6578 5.2074 37.6555C4.70646 37.6552 4.49625 37.4506 4.49413 36.9441C4.48798 35.4732 4.48805 34.0023 4.49381 32.5314C4.49587 32.0043 4.70355 31.8076 5.23673 31.8071C7.6448 31.8052 10.0529 31.8063 12.5 31.8063ZM12.9863 32.9789C10.5579 32.9789 8.12953 32.9789 5.68631 32.9789C5.68631 34.1645 5.68631 35.3125 5.68631 36.4681C8.23815 36.4681 10.7687 36.4681 13.3364 36.4681C13.3364 35.3637 13.3415 34.2749 13.3245 33.1866C13.3234 33.116 13.1521 33.048 12.9863 32.9789Z" fill="#2B214A"/>
</g>
<defs>
<clipPath id="clip0_140_276">
<rect width="40" height="40" fill="white"/>
</clipPath>
</defs>
</svg>
