<svg width="30" height="30" viewBox="0 0 30 30" fill="none" xmlns="http://www.w3.org/2000/svg">
<g clip-path="url(#clip0_162_63)">
<path d="M22.793 29.8241C17.1485 29.8241 11.5333 29.8242 5.91808 29.8241C5.29525 29.8241 4.97826 29.5837 4.98208 29.1148C4.98587 28.6489 5.29991 28.418 5.93013 28.418C12.8441 28.4179 19.7582 28.4182 26.6722 28.4177C27.5523 28.4176 28.1799 27.9744 28.3796 27.1968C28.4273 27.0109 28.4352 26.8108 28.4353 26.6172C28.4379 18.9122 28.438 11.2071 28.437 3.50212C28.4368 2.33847 27.6762 1.60672 26.5624 1.72171C26.5624 1.82328 26.5625 1.92818 26.5624 2.03308C26.5578 5.00178 26.5791 7.9708 26.5424 10.9391C26.4927 14.9548 25.9355 18.9093 24.9961 22.8116C24.9072 23.1809 24.8243 23.552 24.7232 23.9181C24.2918 25.48 22.9359 26.5379 21.3195 26.5398C15.3625 26.5468 9.40547 26.547 3.44849 26.5402C1.68809 26.5382 0.502439 25.0189 0.920649 23.3035C1.50078 20.924 1.98101 18.5266 2.26499 16.0928C2.51073 13.9866 2.64 11.8731 2.6373 9.7519C2.63466 7.67184 2.63615 5.59177 2.63691 3.51171C2.63762 1.58927 3.92707 0.293434 5.84185 0.293239C12.7656 0.292535 19.6894 0.292582 26.6132 0.293208C28.5319 0.293381 29.8237 1.58581 29.8239 3.50644C29.8246 11.2115 29.8247 18.9165 29.8238 26.6215C29.8236 28.5217 28.5255 29.8221 26.6307 29.8239C25.3612 29.8251 24.0917 29.8241 22.793 29.8241ZM9.76518 14.6582C9.28124 15.2945 8.79238 15.9272 8.31524 16.5686C8.04007 16.9385 8.09331 17.3617 8.42439 17.6023C8.75655 17.8437 9.16391 17.765 9.44493 17.3932C9.77999 16.9498 10.109 16.5018 10.4357 16.0522C10.9195 15.3864 10.9546 15.3815 11.4994 16.0045C11.9166 16.4817 12.3013 16.9903 12.7458 17.4401C13.7365 18.4427 14.7961 18.4594 15.8448 17.5239C16.1142 17.2836 16.3714 17.0297 16.6386 16.7869C16.8925 16.5563 17.1505 16.4522 17.5117 16.611C17.9556 16.8061 18.3908 16.5315 18.4771 16.0617C18.5327 15.7587 18.4049 15.4857 18.1107 15.3355C17.3212 14.9325 16.5785 15.0455 15.9012 15.5872C15.4979 15.9097 15.1304 16.2765 14.7306 16.6037C14.4131 16.8635 14.2253 16.8698 13.9316 16.589C13.5804 16.2534 13.2743 15.871 12.9402 15.5168C12.5933 15.1489 12.2673 14.752 11.8763 14.4371C11.3262 13.9942 10.4429 13.8386 9.76518 14.6582ZM20.5541 18.0242C20.8483 17.8347 20.9733 17.5685 20.8939 17.225C20.8272 16.9365 20.5856 16.7308 20.2946 16.7047C19.9967 16.6779 19.7596 16.7896 19.6055 17.05C19.4575 17.2999 19.4859 17.6186 19.6662 17.8442C19.8606 18.0873 20.1421 18.1536 20.5541 18.0242Z" fill="#8787B0"/>
</g>
<defs>
<clipPath id="clip0_162_63">
<rect width="30" height="30" fill="white"/>
</clipPath>
</defs>
</svg>
